<svg xmlns="http://www.w3.org/2000/svg" viewBox="0 0 230.87 261.32"><defs><style>.cls-1{fill:#5dffff;}.cls-2{fill:#fff;}.cls-3{fill:#1d0fff;}</style></defs><g id="Layer_1" data-name="Layer 1"><path class="cls-1" d="M91,299.5c-10.25-74.74,5.32-126.68,15.5-152.5,10.27-26,20.49-39.29,32-49,2.29-1.93,40.17-32.86,88-22,30.69,7,49,27.39,59.5,39.5,30,34.51,30.86,85.84,32.5,188.5.08,4.43.1,13.74-6,21-8.58,10.23-24,10.06-30,10-18.24-.2-31.5-9.56-37-14a72.43,72.43,0,0,1-36,13,54.07,54.07,0,0,1-46-18,61.1,61.1,0,0,1-29,10,45.27,45.27,0,0,1-15-1C102.24,320.52,93.35,304.24,91,299.5Z" transform="translate(-87.61 -73.69)"/><path class="cls-2" d="M188.36,178.48c-.8,14.9-10.43,24.73-13.36,27.52a24.31,24.31,0,0,0-7-9,16.63,16.63,0,0,0-8-4c-5.13-.78-9.27,1.74-13,4a33.82,33.82,0,0,0-9,8c-1.56-2-13.39-17.32-8.52-36,3.94-15.1,18.54-31.31,34.81-28.7S189.17,163.23,188.36,178.48Z" transform="translate(-87.61 -73.69)"/><path class="cls-2" d="M278.45,179.69c2.31,11.48-11.71,32.56-31.26,31.32-18.05-1.15-27.73-20.53-27.12-35,.8-18.69,19.09-34.74,27.93-32.05,2.88.88,3.4,3.33,7,9C266.33,170.85,276.71,171.05,278.45,179.69Z" transform="translate(-87.61 -73.69)"/><circle class="cls-3" cx="56.36" cy="102.81" r="16"/><circle class="cls-3" cx="148.36" cy="105.81" r="16"/></g></svg>