<svg xmlns="http://www.w3.org/2000/svg" xmlns:xlink="http://www.w3.org/1999/xlink" viewBox="0 0 384.91 373.49"><defs><style>.cls-1{fill:url(#linear-gradient);}.cls-2{fill:url(#linear-gradient-2);}.cls-3{fill:url(#linear-gradient-3);}.cls-4{fill:url(#linear-gradient-4);}.cls-5{fill:url(#linear-gradient-5);}.cls-6{fill:url(#radial-gradient);}.cls-7{fill:url(#radial-gradient-2);}.cls-8{fill:url(#radial-gradient-3);}.cls-9{fill:url(#radial-gradient-4);}.cls-10{fill:url(#radial-gradient-5);}.cls-11{fill:#d7425d;}.cls-12{fill:url(#linear-gradient-6);}.cls-13{fill:url(#linear-gradient-7);}.cls-14{fill:url(#linear-gradient-8);}.cls-15{fill:#775353;}.cls-16{fill:url(#linear-gradient-9);}.cls-17{fill:url(#linear-gradient-10);}.cls-18{fill:url(#linear-gradient-11);}.cls-19{fill:url(#linear-gradient-12);}.cls-20{fill:url(#linear-gradient-13);}.cls-21{fill:url(#linear-gradient-14);}.cls-22{fill:url(#linear-gradient-15);}.cls-23{fill:#24b0c7;}.cls-24{fill:url(#linear-gradient-16);}.cls-25{fill:url(#linear-gradient-17);}.cls-26{fill:url(#linear-gradient-18);}.cls-27{fill:url(#linear-gradient-19);}.cls-28{fill:url(#linear-gradient-20);}.cls-29{fill:#de989a;}.cls-30{fill:url(#linear-gradient-21);}.cls-31{fill:url(#linear-gradient-22);}.cls-32{fill:url(#linear-gradient-23);}.cls-33{fill:url(#linear-gradient-24);}.cls-34{fill:url(#linear-gradient-25);}.cls-35{fill:url(#linear-gradient-26);}.cls-36{fill:url(#linear-gradient-27);}.cls-37{fill:url(#linear-gradient-28);}.cls-38{fill:url(#linear-gradient-29);}.cls-39{fill:url(#linear-gradient-30);}.cls-40{fill:url(#linear-gradient-31);}.cls-41{fill:url(#linear-gradient-32);}.cls-42{fill:url(#linear-gradient-33);}.cls-43{fill:url(#linear-gradient-34);}.cls-44{fill:url(#linear-gradient-35);}.cls-45{fill:url(#linear-gradient-36);}.cls-46{fill:url(#linear-gradient-37);}.cls-47{fill:url(#linear-gradient-38);}.cls-48{fill:url(#linear-gradient-39);}.cls-49{fill:url(#linear-gradient-40);}.cls-50{fill:url(#linear-gradient-41);}.cls-51{fill:url(#linear-gradient-42);}.cls-52{fill:url(#linear-gradient-43);}.cls-53{fill:url(#linear-gradient-44);}.cls-54{fill:url(#linear-gradient-45);}.cls-55{fill:url(#linear-gradient-46);}.cls-56{fill:url(#linear-gradient-47);}.cls-57{fill:url(#linear-gradient-48);}.cls-58{fill:url(#linear-gradient-49);}.cls-59{fill:url(#linear-gradient-50);}</style><linearGradient id="linear-gradient" x1="175.91" y1="-10.61" x2="175.91" y2="346.39" gradientUnits="userSpaceOnUse"><stop offset="0.03" stop-color="#1f0f0f"/><stop offset="0.21" stop-color="#570f0f"/></linearGradient><linearGradient id="linear-gradient-2" x1="139.86" y1="178.5" x2="384.91" y2="178.5" gradientUnits="userSpaceOnUse"><stop offset="0" stop-color="#570f0f"/><stop offset="0.03" stop-color="#681a0e"/><stop offset="0.09" stop-color="#8b300d"/><stop offset="0.16" stop-color="#a7410c"/><stop offset="0.22" stop-color="#bb4d0b"/><stop offset="0.29" stop-color="#c7550a"/><stop offset="0.36" stop-color="#cb570a"/><stop offset="0.69" stop-color="#fdac49"/><stop offset="0.85" stop-color="#c75105"/></linearGradient><linearGradient id="linear-gradient-3" x1="175.51" y1="248.16" x2="198.47" y2="208.39" gradientUnits="userSpaceOnUse"><stop offset="0.33" stop-color="#fff8f0"/><stop offset="0.35" stop-color="#f1e1dc"/><stop offset="0.39" stop-color="#e0c3c3"/><stop offset="0.42" stop-color="#d2acae"/><stop offset="0.46" stop-color="#c89ba0"/><stop offset="0.5" stop-color="#c29198"/><stop offset="0.56" stop-color="#c08e95"/></linearGradient><linearGradient id="linear-gradient-4" x1="201.42" y1="364.18" x2="201.42" y2="182.29" gradientUnits="userSpaceOnUse"><stop offset="0" stop-color="#f6ecec"/><stop offset="0.05" stop-color="#f2e5e8"/><stop offset="0.28" stop-color="#dfcad9"/><stop offset="0.52" stop-color="#d2b6ce"/><stop offset="0.76" stop-color="#caaac7"/><stop offset="1" stop-color="#c7a6c5"/></linearGradient><linearGradient id="linear-gradient-5" x1="153" y1="237.5" x2="217" y2="237.5" gradientUnits="userSpaceOnUse"><stop offset="0.22" stop-color="#cb3852"/><stop offset="0.34" stop-color="#a32e4d"/><stop offset="0.47" stop-color="#802648"/><stop offset="0.6" stop-color="#641f44"/><stop offset="0.74" stop-color="#501a41"/><stop offset="0.87" stop-color="#441740"/><stop offset="1" stop-color="#40163f"/></linearGradient><radialGradient id="radial-gradient" cx="131.85" cy="316.83" r="116.83" gradientUnits="userSpaceOnUse"><stop offset="0" stop-color="#f6ecec"/><stop offset="0.22" stop-color="#f3e7e9"/><stop offset="0.48" stop-color="#e9d9e2"/><stop offset="0.75" stop-color="#dac2d5"/><stop offset="1" stop-color="#c7a6c5"/></radialGradient><radialGradient id="radial-gradient-2" cx="118.5" cy="275" r="12.31" gradientUnits="userSpaceOnUse"><stop offset="0" stop-color="#ed88b4"/><stop offset="0.16" stop-color="#ec85b0"/><stop offset="0.31" stop-color="#e87ba4"/><stop offset="0.47" stop-color="#e16b90"/><stop offset="0.62" stop-color="#d75475"/><stop offset="0.78" stop-color="#cb3852"/></radialGradient><radialGradient id="radial-gradient-3" cx="84.5" cy="296.5" r="14.01" xlink:href="#radial-gradient-2"/><radialGradient id="radial-gradient-4" cx="61.15" cy="334.59" r="13.32" xlink:href="#radial-gradient-2"/><radialGradient id="radial-gradient-5" cx="162.05" cy="150.56" fy="205.18033361903645" r="113.69" xlink:href="#linear-gradient-3"/><linearGradient id="linear-gradient-6" x1="186.5" y1="177" x2="186.5" y2="157.76" gradientUnits="userSpaceOnUse"><stop offset="0.22" stop-color="#aa6ea9"/><stop offset="0.25" stop-color="#a368a2"/><stop offset="0.4" stop-color="#804b7f"/><stop offset="0.55" stop-color="#643463"/><stop offset="0.7" stop-color="#50234f"/><stop offset="0.85" stop-color="#441943"/><stop offset="1" stop-color="#40163f"/></linearGradient><linearGradient id="linear-gradient-7" x1="120.25" y1="190" x2="120.25" y2="171.92" xlink:href="#linear-gradient-6"/><linearGradient id="linear-gradient-8" x1="133.98" y1="59.18" x2="219.86" y2="207.92" gradientUnits="userSpaceOnUse"><stop offset="0.35" stop-color="#775353"/><stop offset="0.41" stop-color="#6c4544"/><stop offset="0.56" stop-color="#572929"/><stop offset="0.7" stop-color="#481615"/><stop offset="0.85" stop-color="#3f0a09"/><stop offset="1" stop-color="#3c0605"/></linearGradient><linearGradient id="linear-gradient-9" x1="146" y1="87.89" x2="25.55" y2="296.5" gradientUnits="userSpaceOnUse"><stop offset="0.22" stop-color="#775353"/><stop offset="0.3" stop-color="#6c4544"/><stop offset="0.47" stop-color="#572929"/><stop offset="0.65" stop-color="#481615"/><stop offset="0.82" stop-color="#3f0a09"/><stop offset="1" stop-color="#3c0605"/></linearGradient><linearGradient id="linear-gradient-10" x1="148.97" y1="82.7" x2="238.07" y2="237.02" gradientUnits="userSpaceOnUse"><stop offset="0.29" stop-color="#775353"/><stop offset="0.36" stop-color="#6c4544"/><stop offset="0.52" stop-color="#572929"/><stop offset="0.68" stop-color="#481615"/><stop offset="0.84" stop-color="#3f0a09"/><stop offset="1" stop-color="#3c0605"/></linearGradient><linearGradient id="linear-gradient-11" x1="245.7" y1="58.62" x2="279.69" y2="117.5" gradientUnits="userSpaceOnUse"><stop offset="0.29" stop-color="#775353"/><stop offset="0.35" stop-color="#6c4544"/><stop offset="0.48" stop-color="#572929"/><stop offset="0.61" stop-color="#481615"/><stop offset="0.74" stop-color="#3f0a09"/><stop offset="0.88" stop-color="#3c0605"/></linearGradient><linearGradient id="linear-gradient-12" x1="261.78" y1="116.13" x2="283.44" y2="153.65" xlink:href="#linear-gradient-11"/><linearGradient id="linear-gradient-13" x1="250.21" y1="188.44" x2="288.86" y2="121.49" gradientUnits="userSpaceOnUse"><stop offset="0.29" stop-color="#775353"/><stop offset="0.36" stop-color="#694141"/><stop offset="0.48" stop-color="#552727"/><stop offset="0.55" stop-color="#4e1e1d"/><stop offset="0.6" stop-color="#491716"/><stop offset="0.61" stop-color="#481615"/><stop offset="0.74" stop-color="#3f0a09"/><stop offset="0.88" stop-color="#3c0605"/></linearGradient><linearGradient id="linear-gradient-14" x1="235.13" y1="171" x2="253" y2="171" gradientUnits="userSpaceOnUse"><stop offset="0.09" stop-color="#6f2d4b"/><stop offset="0.21" stop-color="#702f4f"/><stop offset="0.33" stop-color="#73345b"/><stop offset="0.44" stop-color="#783c6f"/><stop offset="0.56" stop-color="#7f488a"/><stop offset="0.65" stop-color="#8654a7"/></linearGradient><linearGradient id="linear-gradient-15" x1="247.49" y1="163" x2="262" y2="163" xlink:href="#linear-gradient-14"/><linearGradient id="linear-gradient-16" x1="259.97" y1="87.58" x2="239.52" y2="123" gradientUnits="userSpaceOnUse"><stop offset="0.09" stop-color="#f8d8e0"/><stop offset="0.19" stop-color="#f5d4de"/><stop offset="0.29" stop-color="#eac8d9"/><stop offset="0.39" stop-color="#d9b4d1"/><stop offset="0.48" stop-color="#c198c5"/><stop offset="0.58" stop-color="#a275b5"/><stop offset="0.65" stop-color="#8654a7"/></linearGradient><linearGradient id="linear-gradient-17" x1="213.29" y1="100.77" x2="253.18" y2="123.8" gradientUnits="userSpaceOnUse"><stop offset="0.09" stop-color="#f8d8e0"/><stop offset="0.18" stop-color="#f5d4de"/><stop offset="0.27" stop-color="#eac8d9"/><stop offset="0.36" stop-color="#d9b4d1"/><stop offset="0.45" stop-color="#c198c5"/><stop offset="0.54" stop-color="#a275b5"/><stop offset="0.61" stop-color="#8654a7"/></linearGradient><linearGradient id="linear-gradient-18" x1="216.21" y1="136.6" x2="251.2" y2="116.4" xlink:href="#linear-gradient-17"/><linearGradient id="linear-gradient-19" x1="279.56" y1="118.15" x2="237.96" y2="118.15" xlink:href="#linear-gradient-16"/><linearGradient id="linear-gradient-20" x1="252" y1="149.15" x2="252" y2="100" gradientUnits="userSpaceOnUse"><stop offset="0.09" stop-color="#f8d8e0"/><stop offset="0.18" stop-color="#f5d4de"/><stop offset="0.26" stop-color="#eac8d9"/><stop offset="0.34" stop-color="#d9b4d1"/><stop offset="0.43" stop-color="#c198c5"/><stop offset="0.51" stop-color="#a275b5"/><stop offset="0.57" stop-color="#8654a7"/></linearGradient><linearGradient id="linear-gradient-21" x1="291" y1="114" x2="291" y2="272" gradientUnits="userSpaceOnUse"><stop offset="0.09" stop-color="#775353"/><stop offset="0.25" stop-color="#754f51"/><stop offset="0.4" stop-color="#6e434c"/><stop offset="0.55" stop-color="#622f44"/><stop offset="0.65" stop-color="#571d3c"/></linearGradient><linearGradient id="linear-gradient-22" x1="287" y1="205" x2="301" y2="205" xlink:href="#linear-gradient-21"/><linearGradient id="linear-gradient-23" x1="315.96" y1="200.94" x2="307.42" y2="196.02" xlink:href="#linear-gradient-21"/><linearGradient id="linear-gradient-24" x1="305.28" y1="239.45" x2="299.78" y2="233.95" xlink:href="#linear-gradient-21"/><linearGradient id="linear-gradient-25" x1="311.86" y1="234.01" x2="344" y2="234.01" gradientUnits="userSpaceOnUse"><stop offset="0.22" stop-color="#8654a7"/><stop offset="0.33" stop-color="#a275b5"/><stop offset="0.46" stop-color="#c198c5"/><stop offset="0.59" stop-color="#d9b4d1"/><stop offset="0.73" stop-color="#eac8d9"/><stop offset="0.86" stop-color="#f5d4de"/><stop offset="1" stop-color="#f8d8e0"/></linearGradient><linearGradient id="linear-gradient-26" x1="281.58" y1="187.92" x2="289.26" y2="180.24" xlink:href="#linear-gradient-25"/><linearGradient id="linear-gradient-27" x1="317.98" y1="186.19" x2="335.07" y2="186.19" xlink:href="#linear-gradient-25"/><linearGradient id="linear-gradient-28" x1="249.99" y1="208" x2="249.99" y2="292" gradientUnits="userSpaceOnUse"><stop offset="0" stop-color="#f8d8e0"/><stop offset="0.14" stop-color="#f5d4de"/><stop offset="0.27" stop-color="#eac8d9"/><stop offset="0.41" stop-color="#d9b4d1"/><stop offset="0.54" stop-color="#c198c5"/><stop offset="0.67" stop-color="#a275b5"/><stop offset="0.78" stop-color="#8654a7"/></linearGradient><linearGradient id="linear-gradient-29" x1="180" y1="288.94" x2="258" y2="288.94" xlink:href="#linear-gradient-28"/><linearGradient id="linear-gradient-30" x1="308.6" y1="251.6" x2="261.1" y2="299.1" xlink:href="#linear-gradient-28"/><linearGradient id="linear-gradient-31" x1="206" y1="334.92" x2="264.08" y2="334.92" xlink:href="#linear-gradient-28"/><linearGradient id="linear-gradient-32" x1="316" y1="322.75" x2="254.43" y2="322.75" xlink:href="#linear-gradient-28"/><linearGradient id="linear-gradient-33" x1="234" y1="298.68" x2="257" y2="298.68" gradientUnits="userSpaceOnUse"><stop offset="0.09" stop-color="#f8d8e0"/><stop offset="0.21" stop-color="#f5d4de"/><stop offset="0.33" stop-color="#eac8d9"/><stop offset="0.45" stop-color="#d9b4d1"/><stop offset="0.57" stop-color="#c198c5"/><stop offset="0.68" stop-color="#a275b5"/><stop offset="0.78" stop-color="#8654a7"/></linearGradient><linearGradient id="linear-gradient-34" x1="245.33" y1="318.68" x2="261.32" y2="302.69" xlink:href="#linear-gradient-33"/><linearGradient id="linear-gradient-35" x1="266.84" y1="316.28" x2="266.84" y2="299.18" xlink:href="#linear-gradient-33"/><linearGradient id="linear-gradient-36" x1="272.88" y1="283.95" x2="261.81" y2="303.12" xlink:href="#linear-gradient-33"/><linearGradient id="linear-gradient-37" x1="248.87" y1="279.87" x2="260.61" y2="300.2" xlink:href="#linear-gradient-28"/><linearGradient id="linear-gradient-38" x1="56.23" y1="223" x2="56.23" y2="266.77" xlink:href="#linear-gradient-17"/><linearGradient id="linear-gradient-39" x1="30.54" y1="242.03" x2="61.53" y2="259.92" xlink:href="#linear-gradient-17"/><linearGradient id="linear-gradient-40" x1="81" y1="250.1" x2="46.43" y2="250.1" xlink:href="#linear-gradient-17"/><linearGradient id="linear-gradient-41" x1="63.75" y1="284.74" x2="63.75" y2="237.95" gradientUnits="userSpaceOnUse"><stop offset="0.09" stop-color="#f8d8e0"/><stop offset="0.19" stop-color="#f5d4de"/><stop offset="0.29" stop-color="#eac8d9"/><stop offset="0.39" stop-color="#d9b4d1"/><stop offset="0.49" stop-color="#c198c5"/><stop offset="0.58" stop-color="#a275b5"/><stop offset="0.66" stop-color="#8654a7"/></linearGradient><linearGradient id="linear-gradient-42" x1="38.92" y1="280.02" x2="61.41" y2="241.08" xlink:href="#linear-gradient-17"/><linearGradient id="linear-gradient-43" x1="8.93" y1="251.5" x2="19.24" y2="251.5" gradientUnits="userSpaceOnUse"><stop offset="0.16" stop-color="#d7425d"/><stop offset="0.7" stop-color="#ed88b4"/></linearGradient><linearGradient id="linear-gradient-44" x1="26.52" y1="198.46" x2="37.01" y2="198.46" xlink:href="#linear-gradient-43"/><linearGradient id="linear-gradient-45" x1="20.89" y1="170.42" x2="33.62" y2="170.42" xlink:href="#linear-gradient-43"/><linearGradient id="linear-gradient-46" x1="42.42" y1="110.35" x2="61" y2="110.35" xlink:href="#linear-gradient-43"/><linearGradient id="linear-gradient-47" x1="51.81" y1="75.61" x2="72.01" y2="75.61" xlink:href="#linear-gradient-43"/><linearGradient id="linear-gradient-48" x1="17.63" y1="321.5" x2="48.51" y2="321.5" xlink:href="#linear-gradient-43"/><linearGradient id="linear-gradient-49" x1="335.54" y1="101.39" x2="356.67" y2="101.39" xlink:href="#linear-gradient-43"/><linearGradient id="linear-gradient-50" x1="324.67" y1="310.71" x2="341.27" y2="310.71" xlink:href="#linear-gradient-43"/></defs><g id="screen_thing" data-name="screen thing"><polygon id="black_handle" data-name="black handle" class="cls-1" points="125.07 0 213.07 357 226.76 357 139.85 0 125.07 0"/><polygon class="cls-2" points="384.91 357 290.42 0 139.85 0 226.76 357 384.91 357"/></g><g id="neck"><path class="cls-3" d="M174,226.09a10,10,0,0,1,2,4.34c.55,3-.64,4.81,0,5.41,1.15,1.08,6.12-3.65,10-6.5a42.4,42.4,0,0,1,19-7.58,27,27,0,0,1-2-6.5c-1.58-9.09,2.25-15.11,1-16.25S195.74,202.76,174,226.09Z" transform="translate(-8.93 -15)"/></g><g id="kim_top" data-name="kim top"><path class="cls-4" d="M162.87,257.91a98.58,98.58,0,0,1,54-34,95.39,95.39,0,0,1,11,16c26.4,48.36,2.43,105.76-5,122a188,188,0,0,1-51,1Z" transform="translate(-8.93 -15)"/></g><g id="red_neck_trim" data-name="red neck trim"><path class="cls-5" d="M153,251a86.5,86.5,0,0,1,9-10,93.93,93.93,0,0,1,28-18,97.59,97.59,0,0,1,27-7v8a127.4,127.4,0,0,0-57,35Z" transform="translate(-8.93 -15)"/></g><g id="kim_sleeve" data-name="kim sleeve"><path class="cls-6" d="M127,258.43c-7.68-3.53-17.21,2.21-27,8.1a82.81,82.81,0,0,0-20,16.2c-6.26,6.91-18.66,20.6-22,42.51-3,19.92,3.38,33.87,12,52.63,1.66,3.61,4.16,8.5,9,10.12,5.59,1.88,10.29-2,17-5.06,8.11-3.74,19.4-4.18,42-5.06,20.29-.79,20,1.11,26-1,13.62-4.81,21-16.65,27-26.32,9.91-15.93,12.45-30.81,14-40.49a113.9,113.9,0,0,0,0-36.43c-1.92-11.7-3.51-20.47-11-25.31-8-5.16-17.49-2.46-18-2.31-6.1,1.83-9.57,5.94-13,10-2.1,2.48-4.13,5.44-9,16-2.19,4.75-5,11.12-8,18.82a149.75,149.75,0,0,0-8-17.2C133.1,264.61,130.58,260.08,127,258.43Z" transform="translate(-8.93 -15)"/></g><g id="red_sleeve_trim" data-name="red sleeve trim"><path class="cls-7" d="M105,275c.57,1.59,1.23,3.26,2,5,1,2.2,2,4.2,3,6a27.14,27.14,0,0,1,22-14,54.52,54.52,0,0,0-9-8,37.9,37.9,0,0,0-18,11Z" transform="translate(-8.93 -15)"/><path class="cls-8" d="M92.6,282a46,46,0,0,0,2.7,4.39c.91,1.31,1.82,2.48,2.7,3.52a40.43,40.43,0,0,0-10.8,7A39.59,39.59,0,0,0,77.3,311a17.11,17.11,0,0,1-3.6-3.52,16.6,16.6,0,0,1-2.7-5.27,49.41,49.41,0,0,1,7.2-9.66A51.34,51.34,0,0,1,92.6,282Z" transform="translate(-8.93 -15)"/><path class="cls-9" d="M63,318c.85.2.9,1,3,3a22.59,22.59,0,0,0,4,3,47.43,47.43,0,0,0-6,27,10.33,10.33,0,0,1-7-1,10.12,10.12,0,0,1-4-4,30.27,30.27,0,0,1,0-13C54.81,325,60.18,317.32,63,318Z" transform="translate(-8.93 -15)"/></g><g id="head"><path class="cls-10" d="M104,167a78.43,78.43,0,0,0,10,30,67.4,67.4,0,0,0,18,21c6.2,4.69,17.65,13.35,32,12,8.15-.77,13.43-4.51,24-12,9-6.37,20.2-14.31,28-29a72.48,72.48,0,0,0,8-29c.77-8.91,4.45-51.61-27-75-14.64-10.89-39.25-19.34-61-10C107.72,87.14,91.12,126.4,104,167Z" transform="translate(-8.93 -15)"/></g><g id="mouth"><path class="cls-11" d="M163,207a9.44,9.44,0,0,1,5-3,9.23,9.23,0,0,1,4,0,34.83,34.83,0,0,0-4,1A35.33,35.33,0,0,0,163,207Z" transform="translate(-8.93 -15)"/></g><g id="eyes"><path class="cls-12" d="M167,167a37.74,37.74,0,0,1,15-8c6.18-1.62,11.66-1.28,16-1a66.43,66.43,0,0,1,8,1,29.94,29.94,0,0,0-6,1,29.26,29.26,0,0,0-3,1c0,.92.05,2.31,0,4-.12,4.36-.18,6.53-1,8-1.71,3.06-5.95,3.8-8,4a14.44,14.44,0,0,1-4-2,18.12,18.12,0,0,1-5-6,29.25,29.25,0,0,1-2-4,15.81,15.81,0,0,0-8,6Z" transform="translate(-8.93 -15)"/><path class="cls-13" d="M103,180a27.6,27.6,0,0,1,9-6,26,26,0,0,1,12-2,25,25,0,0,1,8,2,10.47,10.47,0,0,1,5,5l.18.42,0,.1C138,181.35,137,185,137,185a24.74,24.74,0,0,1-1,3,29.26,29.26,0,0,1-3,1,29.94,29.94,0,0,1-6,1,23.72,23.72,0,0,1-9-12,11.4,11.4,0,0,0-10,2Z" transform="translate(-8.93 -15)"/></g><g id="bangs"><path class="cls-14" d="M119,120a77.16,77.16,0,0,0-.64,11.34c.1,5.36.31,14.33,4.69,24.38a56.43,56.43,0,0,0,6.5,11.21,35.83,35.83,0,0,1-2-12.2,35.43,35.43,0,0,1,1-8.14,47.38,47.38,0,0,0,9.16,20.34,58.2,58.2,0,0,0,32.54-3.05,75.09,75.09,0,0,1-8.13-15.25A76.68,76.68,0,0,1,157,116.08a51.71,51.71,0,0,0,9.15,28.48,50.76,50.76,0,0,0,15.26,14.24,78,78,0,0,1-17.29-41.7,69.76,69.76,0,0,0,31.53,26.44c7.87-1.82,12.85-.11,15.25,1C222.06,149.81,225.8,163.5,228,172a65.39,65.39,0,0,1,2,13,51.76,51.76,0,0,0,20.58-16s15.35-20.4,8.58-50c-.12-.54-.23-1-.3-1.25s-.1-.44-.14-.59c-4.25-16.76-13.67-27.35-19.33-33.57-6.94-7.62-26.55-26.62-58-30.51-9.1-1.12-29.57-3.76-50.85,8.14C126.64,63.36,103,76.59,97,101c-3.16,12.89-1.47,29.27,0,43.56.45,4.37,1,9.15,1,9.15.4,3.38.76,6.19,1,8.14.43.89,1.1,1.93,2,2,2.67.29,5.54-7.29,7.93-13.88C111.63,142.73,115.13,132.61,119,120Z" transform="translate(-8.93 -15)"/><path class="cls-15" d="M442,243" transform="translate(-8.93 -15)"/></g><g id="left_side_bang" data-name="left side bang"><path class="cls-16" d="M112.19,117c-4.47,13.29-1.77,25.18,0,33a85.32,85.32,0,0,0,6.29,18A21.22,21.22,0,0,1,108,162a19.36,19.36,0,0,1-4.19-7,106.09,106.09,0,0,1,8.38,46c-1.74,36.83-23.14,62-32.48,73A154.89,154.89,0,0,1,42,306a189.69,189.69,0,0,0,18.86-27C82.55,241.27,86.13,204.32,86,181c-.74,2.07-2.35,5.53-6.29,11l-.12.18c-2.33,3.21-6.9,8.26-16.64,15.82a56.33,56.33,0,0,0,13.62-19,57,57,0,0,0,4.19-16c2.74-19.65.72-25.63,2.1-38a94.86,94.86,0,0,1,17.81-45,92.16,92.16,0,0,1,17.81-18L130,91a64.48,64.48,0,0,0-12.57,15A54.36,54.36,0,0,0,112.19,117Z" transform="translate(-8.93 -15)"/></g><g id="right_side_bang" data-name="right side bang"><path class="cls-17" d="M147,87a291,291,0,0,1,23,29,292.16,292.16,0,0,1,27,48,47.85,47.85,0,0,0,3-25c2,6.74,4.56,16.33,7,28,3.84,18.33,6.35,30.34,6,44-.27,10.41-2.35,27.55-13,48a230.71,230.71,0,0,0,14-25c7.07-14.72,11.25-24.28,14-37a121.87,121.87,0,0,0,0-49c-2.87-14.11-8.32-42.83-32-61-6.33-4.86-19.73-15.14-34-11C154.46,78.19,149.58,83.56,147,87Z" transform="translate(-8.93 -15)"/></g><g id="hair_loops" data-name="hair loops"><path id="top_loop" data-name="top loop" class="cls-18" d="M236.07,89.15c1.43-.21-.78-7.83,4-13,4.05-4.39,10.36-4.05,11-4,4.6.32,9.79,2.94,12,8,2.48,5.66.51,12.78-5,17l-5,9a30.41,30.41,0,0,0,13-2,26.37,26.37,0,0,0,13-10,24.25,24.25,0,0,0,4-16c-1.48-12.41-12.8-18.4-14-19-12.36-6.27-24.37.09-26,1-2.65,1.47-8.91,4.94-11,12C229.57,80.61,234.51,89.37,236.07,89.15Z" transform="translate(-8.93 -15)"/><path id="medium_loop" data-name="medium loop" class="cls-19" d="M253,127a26.89,26.89,0,0,0,7,8l.56.42c2.73,2,13.21,9.15,20.44,4.58a10.92,10.92,0,0,0,5-9c-.14-7.74-10.74-12.08-13-13a27.66,27.66,0,0,0-11-2,28.31,28.31,0,0,1,16,1,26.69,26.69,0,0,1,13,10c1.88,2.81,4.81,7.18,4,13-.05.37-1.12,7.24-7,11-7.33,4.68-16.45.89-21-1a38.83,38.83,0,0,1-18-16Z" transform="translate(-8.93 -15)"/><path id="bottom_loop" data-name="bottom loop" class="cls-20" d="M250,143a61,61,0,0,0,8,14c4.12,5.39,12,15.66,19,14,4.31-1,7.13-6.22,8-10,2.46-10.66-7.3-24-24-34l8-3a52.13,52.13,0,0,1,10,8c2.25,2.31,18.06,19,14,38-.69,3.23-2.11,9.86-8,14-7.69,5.4-17,2.35-18,2-8.34-2.88-12.14-10.36-15-16-7-13.78-6.14-27.53-5-35Z" transform="translate(-8.93 -15)"/></g><g id="beads"><path class="cls-21" d="M237,127a154.54,154.54,0,0,0,12,88l4-3a137.91,137.91,0,0,1-7-18,151.44,151.44,0,0,1-6-33,160.06,160.06,0,0,1,1-33Z" transform="translate(-8.93 -15)"/><path class="cls-22" d="M249,129a113.83,113.83,0,0,0,0,37.09A115.3,115.3,0,0,0,258.75,197l3.25-2.32a101.68,101.68,0,0,1-5.68-13.91,111.36,111.36,0,0,1-4.88-25.5,117.87,117.87,0,0,1,.82-25.5Z" transform="translate(-8.93 -15)"/><circle class="cls-23" cx="244.82" cy="201" r="6.54"/><circle class="cls-23" cx="252.82" cy="181.29" r="6.05"/></g><g id="tiny_flower_on_hair" data-name="tiny flower on hair"><path class="cls-24" d="M244.11,123.11a25.14,25.14,0,0,0,12.16-11c5.81-10.87.75-21.85.15-23.09A21.24,21.24,0,0,0,244.94,96C239.26,102.92,238.9,113.7,244.11,123.11Z" transform="translate(-8.93 -15)"/><path class="cls-25" d="M212,103a25.16,25.16,0,0,0,10,13c10.37,6.66,21.72,2.49,23,2a21.2,21.2,0,0,0-6-12C232.51,99.78,221.8,98.56,212,103Z" transform="translate(-8.93 -15)"/><path class="cls-26" d="M217.68,139.15a25.16,25.16,0,0,0,16.21-2.49c10.84-5.86,12.67-17.82,12.85-19.17a21.09,21.09,0,0,0-13.4-.54C224.75,119.63,218.52,128.42,217.68,139.15Z" transform="translate(-8.93 -15)"/><path class="cls-27" d="M277,121.27a25.19,25.19,0,0,0-12.56-10.54c-11.56-4.28-21.75,2.24-22.9,3A21.22,21.22,0,0,0,250,124.15C257.7,128.83,268.42,127.72,277,121.27Z" transform="translate(-8.93 -15)"/><path id="the_bottom_petal" data-name="the bottom petal" class="cls-28" d="M257.49,149.15a23,23,0,0,0,3.65-16c-1.33-8.29-7.59-15.26-16.14-18.16a24.53,24.53,0,0,0-2.39,11.42C243.16,140.36,256.12,148.34,257.49,149.15Z" transform="translate(-8.93 -15)"/><circle class="cls-29" cx="235.07" cy="101" r="3"/></g><g id="branch"><path class="cls-30" d="M316,114l-10,21q-.5,11.5-1,23v21q-3.5,19.5-7,39l-23,45-9,9,16-5,9-18,8-12,8-17q2-20.5,4-41V136Q313.51,125,316,114Z" transform="translate(-8.93 -15)"/><path class="cls-31" d="M287,200a41.86,41.86,0,0,0,5,18l6,4,3-6-4-2-4-4-6-22Z" transform="translate(-8.93 -15)"/><path class="cls-32" d="M320,194l-6,5-9,9c-.33-2-.67-4-1-6l8-6,8-6Z" transform="translate(-8.93 -15)"/><path class="cls-33" d="M292.78,244l9-7,10-4c.34-1,.67-2,1-3l-7,3-9,5-5,4Z" transform="translate(-8.93 -15)"/><path id="leaf" class="cls-34" d="M344,237a26.8,26.8,0,0,0-32-7,9,9,0,0,0,1,6,8.76,8.76,0,0,0,3,3c4.11,2.59,8.91,1.31,10,1,3.07-.88,3.44-2,6-3S338.28,235.3,344,237Z" transform="translate(-8.93 -15)"/><path class="cls-35" d="M284,175a16.61,16.61,0,0,0-2,9c.17,2.17.45,5.88,3,7a4.87,4.87,0,0,0,5-1c2.09-1.92,1.64-5.26,1-7-.5-1.36-2-2.93-5-6C285.18,176.16,284.49,175.48,284,175Z" transform="translate(-8.93 -15)"/><path class="cls-36" d="M335,178a23.59,23.59,0,0,0-8.49,1.95c-1.72.76-5.32,2.41-7.43,5.86a6.64,6.64,0,0,0-1.06,2.93c-.18,1.76.33,4.3,2,5.26,2.08,1.21,5-.68,7.57-2.33a15.37,15.37,0,0,0,6.36-6.83A13.39,13.39,0,0,0,335,178Z" transform="translate(-8.93 -15)"/></g><g id="huge_flower" data-name="huge flower"><path class="cls-37" d="M241,208c-4.36,12.09-7.86,21.38-10,27-5,13.07-7.28,18.59-7,27,.13,3.85.34,9.92,4,16,6.87,11.4,20.31,13.61,23,14l25-26a40.1,40.1,0,0,0-13-27C257.48,233.64,249.87,224.5,241,208Z" transform="translate(-8.93 -15)"/><path class="cls-38" d="M180,270a133.12,133.12,0,0,0,14,20c7.51,8.86,11.26,13.3,17,16,16.28,7.67,34.46-1.17,38-3a49.28,49.28,0,0,0,9-6c-5.6-13.64-14-19.62-18-22-8.15-4.83-15.95-5.29-31-6A177.26,177.26,0,0,0,180,270Z" transform="translate(-8.93 -15)"/><path class="cls-39" d="M304,247a139.85,139.85,0,0,1-13,7c-11.46,5.42-14.14,4.82-20,9-3.11,2.22-10.44,7.45-13,17a28.26,28.26,0,0,0,1,17,26.15,26.15,0,0,0,13,5c9.7.87,16.73-4.28,19-6,9.11-6.9,11.41-17,13-24A57.37,57.37,0,0,0,304,247Z" transform="translate(-8.93 -15)"/><path class="cls-40" d="M206,370c9.25-3.94,17-7.79,23-11,21.49-11.46,26.17-17.43,28-20,2.62-3.67,7.81-11.17,7-21-.21-2.49-.85-10.35-7-15-4.79-3.62-10.27-3.29-15-3-2.92.18-16.7,1-25,12-4.22,5.59-5.22,11.42-6,16-1.35,7.89.14,11.34,0,19A62.58,62.58,0,0,1,206,370Z" transform="translate(-8.93 -15)"/><path class="cls-41" d="M316,353a104.7,104.7,0,0,0-6-19c-4.62-10.91-9.81-18-15-25-6.43-8.68-9.75-13.05-15-15-1.95-.73-10.19-3.45-17,1-6,3.89-7.13,10.85-8,16a29.88,29.88,0,0,0,2,18c3.91,8.41,10.89,12.32,14,14,5.85,3.16,9.69,3.12,21,5C297.71,349,306,350.49,316,353Z" transform="translate(-8.93 -15)"/></g><g id="mini_in_huge" data-name="mini in huge"><path class="cls-42" d="M234,296a18.49,18.49,0,0,0,8,7,19.3,19.3,0,0,0,15,0,15.17,15.17,0,0,0-8-9A15,15,0,0,0,234,296Z" transform="translate(-8.93 -15)"/><path class="cls-43" d="M248.77,322.11a18.49,18.49,0,0,0,8.06-6.92A19.31,19.31,0,0,0,259,300.34,15.14,15.14,0,0,0,248.92,307,14.94,14.94,0,0,0,248.77,322.11Z" transform="translate(-8.93 -15)"/><path class="cls-44" d="M275.5,316.06a18.6,18.6,0,0,0-3.83-9.92,19.32,19.32,0,0,0-13.29-7,15.14,15.14,0,0,0,2.91,11.68A14.94,14.94,0,0,0,275.5,316.06Z" transform="translate(-8.93 -15)"/><path class="cls-45" d="M275.12,288a18.48,18.48,0,0,0-10.36,2.35,19.26,19.26,0,0,0-8.82,12.13,15.12,15.12,0,0,0,12-1.18A14.93,14.93,0,0,0,275.12,288Z" transform="translate(-8.93 -15)"/><path class="cls-46" d="M250.36,279a18.47,18.47,0,0,0-1.25,10.56,19.28,19.28,0,0,0,8.49,12.36,15.14,15.14,0,0,0,2.9-11.68A15,15,0,0,0,250.36,279Z" transform="translate(-8.93 -15)"/><circle class="cls-29" cx="249.57" cy="284.5" r="4.5"/></g><g id="flower_near_sleeve" data-name="flower near sleeve"><path class="cls-47" d="M57,223a22.11,22.11,0,0,0-8,14,22.39,22.39,0,0,0,5,17,14.39,14.39,0,0,0,7-5C65.59,242.7,64.2,232.07,57,223Z" transform="translate(-8.93 -15)"/><path class="cls-48" d="M30.48,242.14a21.58,21.58,0,0,0,26.27,16.72,14.46,14.46,0,0,0-1.28-8.5C51.93,243.41,41.83,239.83,30.48,242.14Z" transform="translate(-8.93 -15)"/><path class="cls-49" d="M81,246a21.85,21.85,0,0,0-27,5.9c.34.32,7.16,6.58,16,4.1C77.75,253.84,80.68,246.82,81,246Z" transform="translate(-8.93 -15)"/><path class="cls-50" d="M73.87,277.16a22.14,22.14,0,0,0-3.49-15.74,22.38,22.38,0,0,0-15.12-9.23,14.43,14.43,0,0,0-1.83,8.41C54.27,268.35,62.44,275.28,73.87,277.16Z" transform="translate(-8.93 -15)"/><path class="cls-51" d="M38.3,279.66a22.08,22.08,0,0,0,13.9-8.17,22.34,22.34,0,0,0,4.12-17.23,14.39,14.39,0,0,0-8.56.85C40.64,258.3,36.56,268.21,38.3,279.66Z" transform="translate(-8.93 -15)"/><circle class="cls-29" cx="46.57" cy="237.5" r="3.5"/></g><g id="petals"><path class="cls-52" d="M14,262c-.95-.92-5.67-5.66-5-12,.46-4.34,3.44-9.23,6-9,2.18.2,3.58,4.05,4,6,.69,3.17-.23,5.79-1,8A22.34,22.34,0,0,1,14,262Z" transform="translate(-8.93 -15)"/><path class="cls-53" d="M27,205c-.33-1.2-1.29-5.33,1-9,.16-.26,3-4.75,6-4a4.63,4.63,0,0,1,3,4C37.27,199.31,33.31,203,27,205Z" transform="translate(-8.93 -15)"/><path class="cls-54" d="M23,182a16.47,16.47,0,0,1,3-20c1.09-1,4.16-3.89,6-3,2.11,1,2.2,6.88,0,11-1.17,2.19-2.24,2.5-5,6A45,45,0,0,0,23,182Z" transform="translate(-8.93 -15)"/><path class="cls-55" d="M61,102c-1.12-.2-9.81-1.62-15,4-.29.31-5.24,5.8-3,10a5.69,5.69,0,0,0,5,3c1.66-.1,3.12-1.19,7-7C56.62,109.57,58.74,106.2,61,102Z" transform="translate(-8.93 -15)"/><path class="cls-56" d="M52,68a14.2,14.2,0,0,0,2,10c3.48,5.1,10.8,7.28,18,5a15.68,15.68,0,0,0-4-11A15.85,15.85,0,0,0,52,68Z" transform="translate(-8.93 -15)"/><path class="cls-57" d="M27,332a30.62,30.62,0,0,0,0-13c-.17-.75-1.8-8-4-8-1.76,0-2.92,4.69-3,5a15,15,0,0,0,2,11A15.74,15.74,0,0,0,27,332Z" transform="translate(-8.93 -15)"/><path class="cls-58" d="M356,115a27.39,27.39,0,0,0,0-12c-.32-1.38-3.07-13.31-11-15-3.21-.68-7.61.25-9,3-1.16,2.3.14,5.14,1,7a15.34,15.34,0,0,0,5,6c2.23,1.45,4.58,3.11,7,5C351.61,111,353.94,113.06,356,115Z" transform="translate(-8.93 -15)"/><path class="cls-59" d="M326,325a32.64,32.64,0,0,0,12-13c1.38-2.77,5.26-10.59,2-14-2.19-2.28-7-1.95-10,0-3.72,2.4-4.33,7-5,12A38.65,38.65,0,0,0,326,325Z" transform="translate(-8.93 -15)"/></g></svg>