<svg xmlns="http://www.w3.org/2000/svg" xmlns:xlink="http://www.w3.org/1999/xlink" viewBox="0 0 490.87 536.56"><defs><style>.cls-1{fill:url(#linear-gradient);}.cls-2{fill:url(#linear-gradient-2);}.cls-3{fill:url(#linear-gradient-3);}.cls-4{fill:url(#linear-gradient-4);}.cls-5{fill:#d4b8a3;}.cls-6{fill:url(#linear-gradient-5);}.cls-7{fill:#f3e2d5;}.cls-8{fill:url(#linear-gradient-6);}.cls-9{fill:#fff;}.cls-10{fill:#c09e86;}.cls-11{fill:#00025f;}.cls-12{fill:url(#linear-gradient-7);}.cls-13{fill:url(#linear-gradient-8);}.cls-14{fill:#ba9173;}.cls-15,.cls-16{fill:#c87d98;}.cls-16{opacity:0.42;}.cls-17{fill:#8697df;}.cls-18{fill:#727aca;}.cls-19{fill:#6c75c8;}.cls-20{fill:#8ca5e3;}.cls-21{fill:#add6fd;}.cls-22{fill:#9dbbf4;}.cls-23{fill:#15000e;}.cls-24{fill:url(#linear-gradient-9);}.cls-25{fill:url(#linear-gradient-10);}.cls-26{fill:url(#linear-gradient-11);}.cls-27{fill:url(#linear-gradient-12);}.cls-28{fill:url(#linear-gradient-13);}.cls-29{fill:#374377;}.cls-30{fill:url(#linear-gradient-14);}.cls-31{fill:url(#linear-gradient-15);}.cls-32{fill:url(#linear-gradient-16);}.cls-33{fill:url(#linear-gradient-17);}.cls-34{fill:#908be4;}.cls-35{fill:#031061;}.cls-36{fill:url(#linear-gradient-18);}.cls-37{fill:#dcc6b8;}.cls-38{fill:url(#linear-gradient-19);}.cls-39{fill:url(#linear-gradient-20);}</style><linearGradient id="linear-gradient" x1="155.19" y1="276.18" x2="155.19" y2="457.72" gradientUnits="userSpaceOnUse"><stop offset="0" stop-color="#cfb09a"/><stop offset="0.12" stop-color="#d3a3a2"/><stop offset="0.3" stop-color="#d795aa"/><stop offset="0.53" stop-color="#d98daf"/><stop offset="0.97" stop-color="#da8bb0"/><stop offset="0.98" stop-color="#d482a3"/><stop offset="1" stop-color="#cf7b99"/></linearGradient><linearGradient id="linear-gradient-2" x1="330.46" y1="162.32" x2="330.46" y2="382.17" gradientUnits="userSpaceOnUse"><stop offset="0" stop-color="#d4b8a3"/><stop offset="0.13" stop-color="#d5b2a5"/><stop offset="0.97" stop-color="#da8bb0"/><stop offset="1" stop-color="#da8ab0"/></linearGradient><linearGradient id="linear-gradient-3" x1="256.77" y1="184.96" x2="256.77" y2="461.02" gradientUnits="userSpaceOnUse"><stop offset="0" stop-color="#cfb09a"/><stop offset="0.32" stop-color="#d59ca6"/><stop offset="0.66" stop-color="#d98fad"/><stop offset="0.97" stop-color="#da8bb0"/><stop offset="0.98" stop-color="#d482a3"/><stop offset="1" stop-color="#cf7b99"/></linearGradient><linearGradient id="linear-gradient-4" x1="188.35" y1="213.48" x2="188.35" y2="444.52" xlink:href="#linear-gradient-3"/><linearGradient id="linear-gradient-5" x1="125.37" y1="162.32" x2="125.37" y2="449.47" gradientUnits="userSpaceOnUse"><stop offset="0" stop-color="#d4b8a3"/><stop offset="0.06" stop-color="#d4b4a4"/><stop offset="0.64" stop-color="#d896ad"/><stop offset="0.97" stop-color="#da8bb0"/><stop offset="1" stop-color="#da8ab0"/></linearGradient><linearGradient id="linear-gradient-6" x1="217.08" y1="253.09" x2="217.08" y2="272.89" gradientUnits="userSpaceOnUse"><stop offset="0" stop-color="#a191c7"/><stop offset="1" stop-color="#908be4"/></linearGradient><linearGradient id="linear-gradient-7" x1="246.78" y1="176.32" x2="246.78" y2="212.21" gradientUnits="userSpaceOnUse"><stop offset="0" stop-color="#2e8caa"/><stop offset="0.14" stop-color="#2b91ae"/><stop offset="0.32" stop-color="#21a0b9"/><stop offset="0.5" stop-color="#11b8cb"/><stop offset="0.65" stop-color="#00d0dd"/></linearGradient><linearGradient id="linear-gradient-8" x1="156.02" y1="178.08" x2="156.02" y2="221.42" gradientUnits="userSpaceOnUse"><stop offset="0" stop-color="#2e8caa"/><stop offset="0.12" stop-color="#2b91ae"/><stop offset="0.26" stop-color="#21a0b9"/><stop offset="0.42" stop-color="#11b8cb"/><stop offset="0.54" stop-color="#00d0dd"/></linearGradient><linearGradient id="linear-gradient-9" x1="309.26" y1="418.11" x2="329.29" y2="418.11" gradientUnits="userSpaceOnUse"><stop offset="0" stop-color="#3747d7"/><stop offset="0.46" stop-color="#4767e5"/><stop offset="1" stop-color="#5c91f8"/></linearGradient><linearGradient id="linear-gradient-10" x1="175.28" y1="41.85" x2="175.28" y2="398.31" gradientUnits="userSpaceOnUse"><stop offset="0" stop-color="#dcc6b8"/><stop offset="0.33" stop-color="#dcc1bb"/><stop offset="0.7" stop-color="#ddb3c3"/><stop offset="1" stop-color="#dea3cd"/></linearGradient><linearGradient id="linear-gradient-11" x1="196.3" y1="274.54" x2="196.3" y2="411.51" gradientUnits="userSpaceOnUse"><stop offset="0" stop-color="#5c91f8"/><stop offset="0.54" stop-color="#4767e5"/><stop offset="1" stop-color="#3747d7"/></linearGradient><linearGradient id="linear-gradient-12" x1="164.13" y1="551.07" x2="197.27" y2="551.07" xlink:href="#linear-gradient-11"/><linearGradient id="linear-gradient-13" x1="281.44" y1="541.88" x2="316.09" y2="541.88" xlink:href="#linear-gradient-11"/><linearGradient id="linear-gradient-14" x1="245.13" y1="470.09" x2="297.94" y2="470.09" gradientUnits="userSpaceOnUse"><stop offset="0" stop-color="#152464"/><stop offset="0.15" stop-color="#1c2b68"/><stop offset="0.66" stop-color="#303d73"/><stop offset="1" stop-color="#374377"/></linearGradient><linearGradient id="linear-gradient-15" x1="228.09" y1="421.41" x2="288.04" y2="421.41" xlink:href="#linear-gradient-14"/><linearGradient id="linear-gradient-16" x1="127.96" y1="423.06" x2="255.03" y2="423.06" gradientUnits="userSpaceOnUse"><stop offset="0" stop-color="#dee6f3"/><stop offset="0.1" stop-color="#d2dff2"/><stop offset="0.45" stop-color="#accaed"/><stop offset="0.53" stop-color="#9fc1ed"/><stop offset="0.68" stop-color="#7da9ec"/><stop offset="0.88" stop-color="#4783ea"/><stop offset="1" stop-color="#246ae9"/></linearGradient><linearGradient id="linear-gradient-17" x1="243.48" y1="413.21" x2="306.19" y2="413.21" gradientUnits="userSpaceOnUse"><stop offset="0" stop-color="#534ccb"/><stop offset="0.08" stop-color="#5853cd"/><stop offset="0.19" stop-color="#6667d2"/><stop offset="0.33" stop-color="#7d87db"/><stop offset="0.48" stop-color="#9cb4e7"/><stop offset="0.55" stop-color="#accaed"/><stop offset="0.6" stop-color="#96abe5"/><stop offset="0.68" stop-color="#7e89db"/><stop offset="0.76" stop-color="#6b6ed4"/><stop offset="0.83" stop-color="#5e5bcf"/><stop offset="0.91" stop-color="#5650cc"/><stop offset="1" stop-color="#534ccb"/></linearGradient><linearGradient id="linear-gradient-18" x1="297.67" y1="69.86" x2="297.67" y2="333.95" xlink:href="#linear-gradient-10"/><linearGradient id="linear-gradient-19" x1="283.99" y1="58.35" x2="283.99" y2="112.81" gradientUnits="userSpaceOnUse"><stop offset="0" stop-color="#da8ab0"/><stop offset="0.55" stop-color="#d280a0"/><stop offset="1" stop-color="#cf7b99"/></linearGradient><linearGradient id="linear-gradient-20" x1="102.73" y1="91.17" x2="137.39" y2="91.17" xlink:href="#linear-gradient-19"/></defs><g id="Layer_1" data-name="Layer 1"><path class="cls-1" d="M131.19,373.55c-17,30.55-15.4,60.42,6.84,75.92a59.27,59.27,0,0,0,18.23,8.25c-19-40.73-11.22-63,0-75.91,9.14-10.53,19.11-13.17,27.34-28.06,10.64-19.23,6.7-37.8,4.56-47.86-2.2-10.35-6.2-29.19-13.67-29.7C167.21,275.69,154.57,292.42,131.19,373.55Z" transform="translate(-69.13 -27)"/><path class="cls-2" d="M334.57,162.38c13.7,1.83,28.13,49.86,16.13,89.65-8.4,27.85-23.74,31.75-25.09,57.23-1.3,24.51,11.14,53.93,26.88,55.32,7.68.68,14.72-5.46,19.71-11.45-11.75,19.87-28.47,31.46-43,28.62-15.12-3-22.72-20.56-28.67-34.34C277,293,294.9,236.56,300.52,219.6,303.92,209.36,320.15,160.44,334.57,162.38Z" transform="translate(-69.13 -27)"/><path class="cls-3" d="M213.78,266.29C211,275.55,192.55,336.46,222,368.6c11.82,12.89,47.09,38.34,51.16,41.26,7.86,5.65,16.39,11.48,18.15,21.45,2.29,13-8.42,25-13.2,29.71,26.65-24.89,30.87-43.57,29.7-56.11-1.45-15.52-10.94-19.31-23.1-54.46-8.11-23.42-7.78-33-6.6-39.61,2.65-15,10.72-21.39,16.5-31.35,18.89-32.55,4.95-88.62-14.85-94.07C259.51,179.85,226.14,225.42,213.78,266.29Z" transform="translate(-69.13 -27)"/><path class="cls-4" d="M180.27,215.82c-24.5,11.26-26.92,67.39-15.75,108.72,8.91,33,23.07,43.91,19.69,69.36-3,22.42-17.33,39.44-29.54,50.62,14.31-5.35,33.39-15.17,43.33-33.75,6.95-13,4.48-21.08,2-76.85-2.47-54.72-.92-65.26,5.91-76.86,8.17-13.89,18.28-19.75,15.75-28.12C218.29,217.87,194.87,209.11,180.27,215.82Z" transform="translate(-69.13 -27)"/><path class="cls-5" d="M177.47,261.34" transform="translate(-69.13 -27)"/><path class="cls-6" d="M121.36,163c-9,4.2-9.43,28.81-9.9,71.63-.89,81.06,11,99-1.65,128.5-11.76,27.42-31.06,33.06-29.71,52.67,1.07,15.29,13.83,26.51,24.76,33.71-5.09-16.21-9.76-38-1.65-50.56a19.55,19.55,0,0,1,6.6-6.32c17.35-11,31.68-36.47,39.61-50.56,13.74-24.42,29.36-73.44,16.5-120.08C156.69,188.48,133.14,157.45,121.36,163Z" transform="translate(-69.13 -27)"/><path class="cls-5" d="M134.56,251.44" transform="translate(-69.13 -27)"/><path class="cls-5" d="M146.12,269.59" transform="translate(-69.13 -27)"/><path class="cls-7" d="M197.27,263c1.39,5.24.14,10.42-3.3,13.2a10.07,10.07,0,0,1-4.95,2.08c-2.45,6.76-10.89,31.47-1.65,39.05a12.2,12.2,0,0,0,3.3,1.7c4.39,1.77,17.29,6.08,49.51-1.7,2.47-.6,4.68-1.17,6.6-1.7l-1.65-40.75c-1-.42-7.6-3.2-8.25-8.49a7.42,7.42,0,0,1,0-1.7A36,36,0,0,1,197.27,263Z" transform="translate(-69.13 -27)"/><path class="cls-8" d="M197.27,270.48a46.93,46.93,0,0,0,22.18,1.82,49.29,49.29,0,0,0,17.43-6.4V253.09a66.08,66.08,0,0,1-19,6.4,61.25,61.25,0,0,1-20.6,0Z" transform="translate(-69.13 -27)"/><path class="cls-9" d="M129.61,159" transform="translate(-69.13 -27)"/><path class="cls-7" d="M129.61,165.62c.35,11.25,1.87,61,38,84.16,13.64,8.76,27.89,10.94,34.65,11.56a79.84,79.84,0,0,0,46.21-9.9c4.65-2.7,20.39-12.09,29.71-31.36,4.11-8.52,5.35-15.61,6.6-23.1a127.53,127.53,0,0,0-1.65-49.51C279.43,131.93,274.32,110.31,255,93c-4.75-4.27-26.3-23.79-57.76-21.45-4.66.34-25.29,2.34-42.9,18.15C128,113.37,129.12,149.41,129.61,165.62Z" transform="translate(-69.13 -27)"/><path class="cls-10" d="M250.08,205.23a70.24,70.24,0,0,1,18.15-3.3c2.33-.11,4.53-.1,6.61,0Z" transform="translate(-69.13 -27)"/><path class="cls-10" d="M251.51,210.46a70.21,70.21,0,0,1,18.16-3.31c2.32-.11,4.53-.09,6.6,0Z" transform="translate(-69.13 -27)"/><path class="cls-10" d="M251.51,215.41a69.82,69.82,0,0,1,18.16-3.3c2.32-.11,4.53-.1,6.6,0Z" transform="translate(-69.13 -27)"/><path class="cls-10" d="M165.92,208.53a60.53,60.53,0,0,0-16.59-3.23,57.9,57.9,0,0,0-6,0Z" transform="translate(-69.13 -27)"/><path class="cls-10" d="M165.33,213.52a60.45,60.45,0,0,0-16.59-3.23,57.71,57.71,0,0,0-6,0Z" transform="translate(-69.13 -27)"/><path class="cls-10" d="M165.33,218.47a60.45,60.45,0,0,0-16.59-3.23,57.71,57.71,0,0,0-6,0Z" transform="translate(-69.13 -27)"/><path class="cls-11" d="M227,185.42" transform="translate(-69.13 -27)"/><path class="cls-12" d="M227,187.08c3.29,7.14,9.63,11,14.85,9.9a10.14,10.14,0,0,0,6.6-4.95c2.55-4.66.23-9.45,0-9.91h1.65a48,48,0,0,0,16.5-3.3,138.72,138.72,0,0,1-19.8-1.65c-4.61-.72-7.83-1.48-11.55,0-4.4,1.76-6.92,5.62-8.25,8.25Z" transform="translate(-69.13 -27)"/><path class="cls-11" d="M151.07,183.77" transform="translate(-69.13 -27)"/><path class="cls-11" d="M151.07,183.77" transform="translate(-69.13 -27)"/><path class="cls-13" d="M151.07,183.77a13.38,13.38,0,0,0,3.3,13.21,11.62,11.62,0,0,0,8.25,3.3c5.27-.28,10.16-4.93,11.55-11.55a26.91,26.91,0,0,0-8.25-8.26,15.78,15.78,0,0,0-3.3-1.65c-4.16-1.43-7.87-.43-9.9,0a38.21,38.21,0,0,1-14.86,0,32.54,32.54,0,0,0,6.6,3.3A31.41,31.41,0,0,0,151.07,183.77Z" transform="translate(-69.13 -27)"/><path class="cls-14" d="M223.68,164a71.15,71.15,0,0,1,24.75-6.12,68.73,68.73,0,0,1,8.25,0,31.6,31.6,0,0,0-33,6.12Z" transform="translate(-69.13 -27)"/><path class="cls-14" d="M142.81,162.46a40,40,0,0,1,21.05,1.75,37.81,37.81,0,0,1,7,3.51,24.25,24.25,0,0,0-28.06-5.26Z" transform="translate(-69.13 -27)"/><path class="cls-10" d="M197.27,223.38" transform="translate(-69.13 -27)"/><path class="cls-15" d="M198.92,226.15c0,.42,13.33,1.6,19.81-1.93.74-.41,6.78-3.81,9.58-5a2.39,2.39,0,0,0,.32-.16,124.15,124.15,0,0,1-14.85,5.16C204.77,226.51,198.92,225.87,198.92,226.15Z" transform="translate(-69.13 -27)"/><polygon class="cls-16" points="265.12 384.51 298.12 448.87 317.96 443.09 345.98 376.26 265.12 384.51"/><polygon class="cls-17" points="380.63 323.45 345.98 376.26 385.58 387.81 404.26 364.71 380.63 323.45"/><polygon class="cls-18" points="428.49 353.15 404.26 364.71 380.63 323.45 428.49 353.15"/><polygon class="cls-19" points="317.96 443.09 354.23 422.47 345.98 376.26 317.96 443.09"/><polygon class="cls-18" points="385.58 387.81 354.23 422.47 345.98 376.26 385.58 387.81"/><polygon class="cls-18" points="223.89 396.06 237.06 386.21 265.12 384.51 223.89 396.06"/><polygon class="cls-20" points="223.89 396.06 298.01 448.66 265.12 384.51 223.89 396.06"/><polygon class="cls-21" points="380.63 323.45 410.34 277.24 325.78 302 380.63 323.45"/><polygon class="cls-22" points="261.33 376.26 325.78 302 380.63 323.45 261.33 376.26"/><polygon class="cls-20" points="261.33 376.26 345.98 376.26 380.63 323.45 261.33 376.26"/><polygon class="cls-17" points="265.12 384.51 261.33 376.26 345.98 376.26 265.12 384.51"/><polygon class="cls-18" points="237.06 386.21 261.33 376.26 265.12 384.51 237.06 386.21"/><polygon class="cls-17" points="345.98 376.26 298.01 448.66 265.12 384.51 345.98 376.26"/><polygon class="cls-18" points="298.01 448.66 317.96 443.09 345.98 376.26 298.01 448.66"/><polygon class="cls-17" points="223.89 396.06 278.32 457.12 298.01 448.66 223.89 396.06"/><polygon class="cls-18" points="261.33 457.12 278.32 457.12 223.89 396.06 261.33 457.12"/><polygon class="cls-19" points="223.89 396.06 217.8 430.82 261.33 457.12 223.89 396.06"/><path class="cls-23" d="M293,423.06" transform="translate(-69.13 -27)"/><polygon class="cls-19" points="223.89 396.06 207.79 394.41 217.8 430.82 223.89 396.06"/><polygon class="cls-20" points="428.49 353.15 448.35 327.28 380.63 323.45 428.49 353.15"/><polygon class="cls-22" points="410.34 277.24 448.35 327.28 380.63 323.45 410.34 277.24"/><polygon class="cls-21" points="410.34 277.24 448.35 295.99 448.35 327.28 410.34 277.24"/><polygon class="cls-17" points="448.35 327.28 452.93 346.55 428.49 353.15 448.35 327.28"/><polygon class="cls-18" points="452.93 346.55 475.86 355.63 448.35 327.28 452.93 346.55"/><polygon class="cls-22" points="448.35 295.99 481.3 311.9 448.35 327.28 448.35 295.99"/><polygon class="cls-17" points="448.35 327.28 475.86 355.63 481.3 311.9 448.35 327.28"/><polygon class="cls-22" points="475.86 355.63 490.87 353.15 481.3 311.9 475.86 355.63"/><polygon class="cls-17" points="475.86 355.63 487.12 387.81 490.87 353.15 475.86 355.63"/><path class="cls-7" d="M281.44,286.09a1001.41,1001.41,0,0,1,37.75,109.68q4.47,15.89,8.25,31.35c-1.46.38-7.28,1.7-11.55-1.65a9.51,9.51,0,0,1-1.65-1.65Q287.12,370.63,260,317.45c-3.87-19.61.83-34.1,8.25-36.31C269.3,280.82,273.89,279.73,281.44,286.09Z" transform="translate(-69.13 -27)"/><path class="cls-24" d="M321.39,410c-.47.54-4.38,4.68-9.88,4.5-1.23,0-1.65-.37-2,0-1.17,1.32,1.4,8,5.92,11.24a12.26,12.26,0,0,0,2.69,1.45,13,13,0,0,0,5.22.8,12.9,12.9,0,0,0,5.92-1.79l-6.6-18A12,12,0,0,1,321.39,410Z" transform="translate(-69.13 -27)"/><path class="cls-25" d="M240.25,102.11c-36.23,16.12-45.76,12.08-69.71,26.69-11.52,7-27.32,16.93-39.61,37.38-13,21.59-15,43.23-15.84,53.39-2.74,33.12,8.11,38.51,11.09,76.52,1,13.36,5.77,73.62-22.18,94.33-14.36,10.64-34.12,8.43-34.85,5.34C68.49,393,83.49,391.24,94.5,378c16.57-20,13-52.67,11.09-69.41C102.53,281,95.06,267.3,89.74,249.82c-11.22-36.89-13-91,7.93-133.48,27.13-54.93,88.05-81.34,134.65-73,22,4,49.29,17.21,49.12,30.25C281.3,83.83,264.42,91.35,240.25,102.11Z" transform="translate(-69.13 -27)"/><path class="cls-26" d="M162.62,327.35c.91.34-1,5.76-1.65,13.2A64.56,64.56,0,0,0,162.62,362a139.31,139.31,0,0,0,21.45,6.6s32,7.09,61.06-1.65a43.58,43.58,0,0,0,18.15-9.9c.72-.67,1.29-1.26,1.65-1.65l-3.3-33c6.18-26.77,12-35.55,16.51-38,.44-.24,1.63-.82,1.65-1.65,0-3.31-18.57-6.25-34.66-8.25l-4.95,14.85-28.05,28.06L189,297.64l1.65-21.45h-36.3a135.9,135.9,0,0,0-14.86,11.55c-2.26,2-3.77,3.55-6.6,4.95-5.54,2.75-8.33,1.19-11.55,3.3-5.47,3.59-5.06,13.12-5,14.85.77,12.07,10.74,19.68,13.2,21.46a234.29,234.29,0,0,0-14.85,31.35,30.68,30.68,0,0,0-1.65,5c-1,4.8-1.47,19,31.35,42.91q6.61-14,13.21-28.05-8.25-10.74-16.51-21.46c2.92-4.14,7.06-10.33,11.56-18.15C158.27,334.2,161.55,327,162.62,327.35Z" transform="translate(-69.13 -27)"/><path class="cls-7" d="M149.42,461a615.79,615.79,0,0,0,14.85,79.21q2.37,9.25,4.95,18.15,23.64,7.9,26.4,3.3a3.83,3.83,0,0,0,0-3.3L192.32,461Z" transform="translate(-69.13 -27)"/><path class="cls-27" d="M169.22,558.38c6,6,15.08,5.31,19.8,5a34.49,34.49,0,0,0,8.25-1.65l-1.65-23.1a41.71,41.71,0,0,1-23.1,4.95,39,39,0,0,1-8.25-1.65C164.08,543.6,163.29,552.44,169.22,558.38Z" transform="translate(-69.13 -27)"/><path class="cls-7" d="M231.93,451.12c16.26,24.67,32.32,51.06,47.86,79.21q6,10.78,11.55,21.45h24.75A369.65,369.65,0,0,0,293,457.72c-4.67-11.92-9.7-22.92-14.85-33-1.57-.59-17.06-6.16-31.36,3.3C234.68,436,232.3,448.91,231.93,451.12Z" transform="translate(-69.13 -27)"/><path class="cls-28" d="M289.69,555.63a45,45,0,0,0,19.8,0,47.51,47.51,0,0,0,6.6-2,122.7,122.7,0,0,0-1.65-18.39c-.48-2.9-1-5.63-1.65-8.17a51.6,51.6,0,0,1-23.1,8.17,47.28,47.28,0,0,1-8.25,0Z" transform="translate(-69.13 -27)"/><path class="cls-29" d="M250.08,479.17" transform="translate(-69.13 -27)"/><path class="cls-30" d="M248.43,479.17a98.11,98.11,0,0,1,36.31-9.9,95.18,95.18,0,0,1,13.2,0l-3.3-8.25c-39.63,6.59-49.67,9.84-49.51,11.55a36.8,36.8,0,0,0,1.65,3.3C247.5,477.3,248.08,478.46,248.43,479.17Z" transform="translate(-69.13 -27)"/><path class="cls-29" d="M316.09,459.37" transform="translate(-69.13 -27)"/><path class="cls-7" d="M231.93,449.47" transform="translate(-69.13 -27)"/><path class="cls-31" d="M231.93,451.12a121.25,121.25,0,0,1,46.21-11.56c3.42-.14,6.73-.13,9.9,0q-9.07-23.93-18.16-47.85c-2.84,0-19.46.14-31.35,13.2C227.59,416.92,225,435.07,231.93,451.12Z" transform="translate(-69.13 -27)"/><path class="cls-32" d="M252.16,391.57c-9.4,16.4-18.32,38.45-19.24,64.85-.11,3.07-.1,6.08,0,9-28.57,7-61.29,10-96.21,3.61-3-.55-5.88-1.15-8.75-1.81a417.82,417.82,0,0,1,29.74-86.46q1.73-3.64,3.5-7.21c55.93,11,76.38,9.5,84,5.41,1.23-.66,6.45-3.73,8.75-1.8C256.45,379.28,254.17,386.45,252.16,391.57Z" transform="translate(-69.13 -27)"/><path class="cls-33" d="M243.48,378.51c10.26,36.6,27.43,61,44.79,77.52l1.79,1.69A28.65,28.65,0,0,0,302.61,456a26.63,26.63,0,0,0,3.58-1.68c-6.67-11.38-13.08-23.37-19.09-36-10.59-22.19-15.16-34.93-16.74-39.69-1.4-4.18-2.45-7.68-3.15-10.09Z" transform="translate(-69.13 -27)"/><path class="cls-34" d="M334.24,418.11" transform="translate(-69.13 -27)"/><path class="cls-35" d="M159.32,376.41c51,14.77,84.82,5.54,105.66-5.25,1.1-.57,2.18-1.15,3.25-1.75q-1.62-7-3.25-14a88.81,88.81,0,0,1-26,12.26,103.45,103.45,0,0,1-24.38,3.5c-.48,0-6.09.26-11.38,0-16-.79-31.07-6.29-40.64-10.51C162.57,360.65,161.44,366.1,159.32,376.41Z" transform="translate(-69.13 -27)"/><path class="cls-36" d="M246.78,96.31c12.73,38.85,23.84,69.58,31.77,90.77,9.06,24.22,11.31,28.92,12.35,39.6,3.51,36.07-15.31,53-5.3,75.91,4.73,10.79,13.22,16.88,24.2,31,.08.11.33.44.51.39,1.34-.38-4.43-21.29-5.29-24.76-7.5-30.08,25.21-68.48,37.06-102.31,3.81-10.91,16.29-59.76-8.83-102.32-6.72-11.4-19.75-33.47-42.35-34.65C265.65,68.58,248.07,94.36,246.78,96.31Z" transform="translate(-69.13 -27)"/><path class="cls-37" d="M298.42,27c10.3,23,20.11,56.19,13.71,93.5-.72,4.19-1.61,8.23-2.64,12.12a100.84,100.84,0,0,0-12.86-14.54c-9.6-8.91-19.34-14.28-33.46-22.28q-4.92-2.79-9.79-5.29Q261,79.13,269.05,67.57,283.71,46.57,298.42,27Z" transform="translate(-69.13 -27)"/><path class="cls-37" d="M83.41,36.9a193.11,193.11,0,0,1,63.68,36.31q5.67,4.91,10.58,9.9a222.14,222.14,0,0,0-45.84,41.26q-2.74,3.3-5.28,6.6Q95,83.93,83.41,36.9Z" transform="translate(-69.13 -27)"/><path class="cls-38" d="M289.69,58.35a110,110,0,0,1,11.55,42.91,105.87,105.87,0,0,1,0,11.55,99.93,99.93,0,0,0-28.05-23.1c-2.24-1.23-4.44-2.32-6.61-3.3Q278.15,72.39,289.69,58.35Z" transform="translate(-69.13 -27)"/><path class="cls-39" d="M102.73,66.42a84.78,84.78,0,0,1,28.06,16.5,82.13,82.13,0,0,1,6.6,6.6c-8,4.69-17,12-23.11,23.1q-.9,1.66-1.65,3.3Z" transform="translate(-69.13 -27)"/></g></svg>