<svg xmlns="http://www.w3.org/2000/svg" xmlns:xlink="http://www.w3.org/1999/xlink" viewBox="0 0 235.45 335.27"><defs><style>.cls-1{fill:url(#linear-gradient);}.cls-2{fill:url(#linear-gradient-2);}.cls-3{fill:url(#linear-gradient-3);}.cls-4{fill:url(#linear-gradient-4);}.cls-5{fill:url(#linear-gradient-5);}.cls-6{fill:url(#linear-gradient-6);}.cls-7{fill:#245edd;}.cls-8{fill:url(#radial-gradient);}.cls-9{fill:url(#radial-gradient-2);}.cls-10{fill:url(#linear-gradient-7);}.cls-11{fill:url(#linear-gradient-8);}.cls-12{fill:#810404;}.cls-13{fill:#fec196;stroke:#fec196;stroke-miterlimit:10;}.cls-14{fill:#8b3222;}.cls-15{fill:#35292e;}.cls-16{fill:url(#radial-gradient-3);}.cls-17{fill:#262fb3;}.cls-18{fill:url(#linear-gradient-9);}.cls-19{fill:url(#linear-gradient-10);}.cls-20{fill:url(#radial-gradient-4);}.cls-21{fill:#dfe7fa;}.cls-22{fill:#f61419;}</style><linearGradient id="linear-gradient" x1="182.33" y1="243.1" x2="244.72" y2="135.04" gradientUnits="userSpaceOnUse"><stop offset="0" stop-color="#f61419"/><stop offset="0.26" stop-color="#f41318"/><stop offset="0.35" stop-color="#ed1216"/><stop offset="0.42" stop-color="#e20e12"/><stop offset="0.47" stop-color="#d10a0c"/><stop offset="0.52" stop-color="#bb0405"/><stop offset="0.53" stop-color="#b30202"/></linearGradient><linearGradient id="linear-gradient-2" x1="132.6" y1="126.79" x2="132.6" y2="167" gradientUnits="userSpaceOnUse"><stop offset="0" stop-color="#dfe7fa"/><stop offset="0.67" stop-color="#c7d6f9"/><stop offset="0.72" stop-color="#c5d5f9"/></linearGradient><linearGradient id="linear-gradient-3" x1="304.92" y1="268.61" x2="286.83" y2="237.29" gradientUnits="userSpaceOnUse"><stop offset="0" stop-color="#dfe7fa"/><stop offset="0.56" stop-color="#c7d6f9"/><stop offset="0.6" stop-color="#c5d5f9"/></linearGradient><linearGradient id="linear-gradient-4" x1="212.5" y1="360" x2="212.5" y2="279" gradientUnits="userSpaceOnUse"><stop offset="0" stop-color="#245edd"/><stop offset="0.59" stop-color="#143fab"/><stop offset="0.94" stop-color="#0c3093"/></linearGradient><linearGradient id="linear-gradient-5" x1="195.39" y1="216" x2="195.39" y2="323.01" gradientUnits="userSpaceOnUse"><stop offset="0" stop-color="#245edd"/><stop offset="0.19" stop-color="#235bd9"/><stop offset="0.39" stop-color="#1f54cd"/><stop offset="0.58" stop-color="#1847b9"/><stop offset="0.78" stop-color="#0f369d"/><stop offset="0.83" stop-color="#0c3093"/></linearGradient><linearGradient id="linear-gradient-6" x1="114" y1="292.48" x2="242.9" y2="292.48" gradientUnits="userSpaceOnUse"><stop offset="0" stop-color="#245edd"/><stop offset="0.22" stop-color="#235bd9"/><stop offset="0.44" stop-color="#1f54cd"/><stop offset="0.66" stop-color="#1847b9"/><stop offset="0.88" stop-color="#0f369d"/><stop offset="0.94" stop-color="#0c3093"/></linearGradient><radialGradient id="radial-gradient" cx="217.67" cy="233.88" fx="231.55483458858433" r="13.91" gradientTransform="translate(388.63 -33.66) rotate(75.22)" gradientUnits="userSpaceOnUse"><stop offset="0.14" stop-color="#ffe634"/><stop offset="0.28" stop-color="#ffdf34"/><stop offset="0.48" stop-color="#ffcd34"/><stop offset="0.71" stop-color="#ffaf34"/><stop offset="0.83" stop-color="#ff9d34"/></radialGradient><radialGradient id="radial-gradient-2" cx="166.3" cy="222.33" r="11.48" gradientTransform="translate(319.65 -9.12) rotate(70.32)" gradientUnits="userSpaceOnUse"><stop offset="0" stop-color="#ffe634"/><stop offset="0.22" stop-color="#ffce34"/><stop offset="0.6" stop-color="#ff9d34"/></radialGradient><linearGradient id="linear-gradient-7" x1="231.45" y1="378.61" x2="231.45" y2="327" gradientUnits="userSpaceOnUse"><stop offset="0" stop-color="#ab5639"/><stop offset="0.42" stop-color="#934531"/><stop offset="0.63" stop-color="#853c2c"/></linearGradient><linearGradient id="linear-gradient-8" x1="80.54" y1="296.01" x2="132" y2="296.01" gradientUnits="userSpaceOnUse"><stop offset="0" stop-color="#ab5639"/><stop offset="0.53" stop-color="#934531"/><stop offset="0.79" stop-color="#853c2c"/></linearGradient><radialGradient id="radial-gradient-3" cx="199.5" cy="169" r="21.34" gradientTransform="translate(336.81 -53.5) rotate(81.41)" gradientUnits="userSpaceOnUse"><stop offset="0" stop-color="#fec196"/><stop offset="0.37" stop-color="#fbbe95"/><stop offset="0.65" stop-color="#f1b594"/><stop offset="0.87" stop-color="#e4a991"/></radialGradient><linearGradient id="linear-gradient-9" x1="242.27" y1="91.89" x2="192.11" y2="178.78" gradientUnits="userSpaceOnUse"><stop offset="0" stop-color="#f61419"/><stop offset="0.24" stop-color="#f41419"/><stop offset="0.33" stop-color="#ed1217"/><stop offset="0.39" stop-color="#e21014"/><stop offset="0.45" stop-color="#d10c0f"/><stop offset="0.49" stop-color="#bb080a"/><stop offset="0.53" stop-color="#a00303"/><stop offset="0.53" stop-color="#9d0202"/></linearGradient><linearGradient id="linear-gradient-10" x1="140" y1="65" x2="140" y2="65" xlink:href="#linear-gradient-9"/><radialGradient id="radial-gradient-4" cx="237.85" cy="103.48" r="93.03" gradientUnits="userSpaceOnUse"><stop offset="0" stop-color="#f61419"/><stop offset="0.44" stop-color="#f41419"/><stop offset="0.6" stop-color="#ed1217"/><stop offset="0.72" stop-color="#e21014"/><stop offset="0.81" stop-color="#d10c0f"/><stop offset="0.89" stop-color="#bb080a"/><stop offset="0.95" stop-color="#a00303"/><stop offset="0.96" stop-color="#9d0202"/></radialGradient></defs><g id="Sweater"><path class="cls-1" d="M119,167a80.44,80.44,0,0,0,5,15c1.78,4,5.69,11.84,27,37,2.12,2.51,5.07,5.95,6,7,17.82,20,69.87,28.74,94,32a28.16,28.16,0,0,0-1-11q6.39,2.85,13,6,8.29,4,16,8a44.55,44.55,0,0,1,17-29,211.3,211.3,0,0,0-47-21L147,152a39.75,39.75,0,0,0-28,15Z" transform="translate(-80.54 -43.33)"/></g><g id="gloves"><path class="cls-2" d="M119,167c-1.87-2.89-8-13.1-5-25,.54-2.17,3.3-13.33,11-15,6.9-1.5,13.6,5.53,15,7,3.07,3.22,2.43,4.46,9,14,2.52,3.66,3,4,3,5C151.9,159,135.07,163.77,119,167Z" transform="translate(-80.54 -43.33)"/><path class="cls-3" d="M279,261c2.3.57,5.81,1.53,10,3,7.44,2.62,9.14,4.1,13,4,1,0,7.06-.19,11-5a14.26,14.26,0,0,0,2-14c-.64-1.61-1.63-3.1-6-7a116.75,116.75,0,0,0-13-10,46.85,46.85,0,0,0-17,29Z" transform="translate(-80.54 -43.33)"/></g><g id="ov_leg_back" data-name="ov leg back"><path class="cls-4" d="M230.89,291.46c3.14,3.73,5.91,10.43,11.32,23.68,2.91,7.14,5.2,13.17,6.79,17.44A47,47,0,0,1,236.55,350a41.07,41.07,0,0,1-23.77,10,208.73,208.73,0,0,0-15.85-19.94,198.58,198.58,0,0,0-19.24-18.69c-.61-1.91-4.56-15.05,2.26-27.42,8-14.54,23.77-14.94,26-14.95C219.49,278.91,228.44,288.55,230.89,291.46Z" transform="translate(-80.54 -43.33)"/></g><g id="ov_main" data-name="ov main"><path class="cls-5" d="M163,216a56.44,56.44,0,0,0,21,15c18.35,7.46,35,2.66,40,1,.65,2.67,3.39,12.57,13,19a31,31,0,0,0,14,5,59.42,59.42,0,0,1,0,24c-1,4.6-5,22.53-21,34-23.41,16.78-52.15,5.2-55,4-17.21-7.26-33.16-23.51-36-44-2.18-15.69,4-28.77,7-35A75.19,75.19,0,0,1,163,216Z" transform="translate(-80.54 -43.33)"/></g><g id="ov_leg_front" data-name="ov leg front"><path class="cls-6" d="M199,272a88.44,88.44,0,0,0-30-10c-22.94-3.55-42.54,1.4-55,6a86.72,86.72,0,0,1,16,42,65.4,65.4,0,0,1,15,1,76.82,76.82,0,0,1,11,3c17.24,5.65,17.76,6.07,21,7,6.69,1.92,19.22,5.51,32,1,3.15-1.11,16.93-6,19-16C231.25,290.23,203,274.24,199,272Z" transform="translate(-80.54 -43.33)"/></g><g id="ov_strap" data-name="ov strap"><path class="cls-7" d="M215.2,218.83c-4.4,6-7,9.58-8.3,15.29-1,4.3-2.09,14,2.07,16.38,4.31,2.41,11.69-4.7,12.46-5.46,3-2.92,3.07-4.53,7.26-12,6.41-11.43,9.09-12.82,8.31-16.38-1-4.53-6.65-8.3-11.42-7.64C222.13,209.48,219.78,212.6,215.2,218.83Z" transform="translate(-80.54 -43.33)"/><path class="cls-7" d="M171.11,203a35.33,35.33,0,0,0-11.88,16c-.49,1.38-4.76,13.57,0,17,2.8,2,7.88.43,10.89-2s3.51-5.33,5.94-12A149.79,149.79,0,0,1,182,208Z" transform="translate(-80.54 -43.33)"/></g><g id="button"><ellipse class="cls-8" cx="216.16" cy="235.4" rx="7.75" ry="4.98" transform="translate(-147.13 341.03) rotate(-75.22)"/><ellipse class="cls-9" cx="166.3" cy="222.33" rx="7.47" ry="4.35" transform="translate(-179.59 260.72) rotate(-70.32)"/></g><g id="boots"><path class="cls-10" d="M207,353a54.47,54.47,0,0,0,19-6,55.35,55.35,0,0,0,21-20,44.63,44.63,0,0,1,7,14c1.22,4.16,3,10.51,1,18a20.45,20.45,0,0,1-1,3c-3.46,8-11.83,11.44-16,13-6.33,2.36-16.68,6.23-22,1-2.58-2.54-3-6.3-3-9a31.93,31.93,0,0,0-6-14Z" transform="translate(-80.54 -43.33)"/><path class="cls-11" d="M117,267a74.71,74.71,0,0,1,15,43c-2.38,2.27-5.77,5.4-10,9-6.26,5.31-7.58,5.88-9,6-5.44.47-10-5.7-14-11-.87-1.17-1.4-2.3-3.47-5.43S92.38,304,91,302a94.71,94.71,0,0,1-6-10c-3.58-7-5.37-10.46-4-13,1.64-3,7.11-4.8,7.78-4.95L89,274c3.46-.75,4,.45,8,0,3.71-.41,4.92-1.62,11-4C110.08,269.19,113.14,268.08,117,267Z" transform="translate(-80.54 -43.33)"/></g><g id="Hat_lid_shadow" data-name="Hat lid shadow"><path class="cls-12" d="M154.5,125.5a24.19,24.19,0,0,1-12-18,110.44,110.44,0,0,1,15-2c8-.51,12-.77,13,1C171.61,108.5,169,113.39,154.5,125.5Z" transform="translate(-80.54 -43.33)"/></g><g id="face_skin" data-name="face skin"><path class="cls-13" d="M171,104c-14.77,12.81-19.71,30.21-21,35-1.86,6.87-7.14,26.37,2,45,17,34.58,67.39,33.11,70,33,8.53-.37,26.65-1.42,43-15,18.76-15.58,22.25-36.9,23-43,.48-3.89,3.22-29.1-13-49C250.7,80.19,198.45,80.18,171,104Z" transform="translate(-80.54 -43.33)"/></g><g id="some_hair" data-name="some hair"><path class="cls-14" d="M273,171a24.45,24.45,0,0,0,8-14q2,8,4,16a25.08,25.08,0,0,1-5,12,23.34,23.34,0,0,0-7-14Z" transform="translate(-80.54 -43.33)"/></g><g id="moustache"><path class="cls-15" d="M217,174a55.64,55.64,0,0,0,13,3c16.62,1.77,29.84-4.5,36-8a10.91,10.91,0,0,1-2,7c-2.56,3.45-7.26,5-12,4a9.36,9.36,0,0,1-1,7c-2.34,3.59-7.76,5.07-13,3a13.69,13.69,0,0,1-5,5c-6.33,3.59-13.23.37-14,0a19.93,19.93,0,0,1-14,5,19.64,19.64,0,0,1-12-5,18.14,18.14,0,0,1-20-8,8.15,8.15,0,0,1-5,0c-3.54-1.22-6-5.22-6-10-.25.05-4.25.84-7-2a7.66,7.66,0,0,1-1-9,9.9,9.9,0,0,1-2-5,10.2,10.2,0,0,1,2-7,32.92,32.92,0,0,0,8,8c6.92,4.82,14.3,5.81,24,7,5.82.71,6.11.28,12,1A112.37,112.37,0,0,1,217,174Z" transform="translate(-80.54 -43.33)"/></g><g id="nose"><ellipse class="cls-16" cx="199.5" cy="169" rx="15" ry="16.5" transform="translate(-77.94 297.69) rotate(-81.41)"/></g><g id="eyes"><ellipse class="cls-17" cx="232.94" cy="153.39" rx="4.81" ry="6.98" transform="translate(-120.78 166.3) rotate(-45)"/><ellipse class="cls-17" cx="172.64" cy="144.08" rx="6.68" ry="4.81" transform="translate(-131.97 81.86) rotate(-35.03)"/></g><g id="brows"><path class="cls-15" d="M233,135c-.05.39,1.92.44,5,2,4.61,2.34,6.42,5.4,7,5s-.36-3.94-3-6C238.37,133.17,233.08,134.37,233,135Z" transform="translate(-80.54 -43.33)"/><path class="cls-15" d="M170,129c.4.38,2.24-2.12,6-3,3.45-.8,5.9.36,6,0s-4.18-3.5-8-2C171,125.17,169.58,128.59,170,129Z" transform="translate(-80.54 -43.33)"/></g><g id="hat_lid" data-name="hat lid"><path class="cls-18" d="M284.5,176.5a69.26,69.26,0,0,0-12-30c-10.8-15-24.66-20.67-43-28a179.12,179.12,0,0,0-76-12c-4.63.28-8.44.69-11,1a26.71,26.71,0,0,1,10-13,26.29,26.29,0,0,1,13-4C191.45,88.63,224,101,224,101c14.55,5.53,24.09,9.24,35.5,17.5,7.2,5.21,17.53,13,25,27A70.18,70.18,0,0,1,291,163a50.69,50.69,0,0,1-3.5,8.5A49.63,49.63,0,0,1,284.5,176.5Z" transform="translate(-80.54 -43.33)"/><path class="cls-19" d="M140,65" transform="translate(-80.54 -43.33)"/></g><g id="hat_puff" data-name="hat puff"><path class="cls-20" d="M165.72,90.62c-5.74-8.91-5.78-15.17-5-19,5.23-25.7,65.21-29.52,85-28a32.83,32.83,0,0,1,12,3c11,5.28,14.8,15.49,20,25,15.71,28.74,30.73,25.81,36,48,1.27,5.35,3.68,16.17-2,27-6.09,11.63-17.61,15.89-21,17a74.48,74.48,0,0,0-10-24c-3.37-5.22-12.3-17.55-37-30C215,95.13,186.25,91.27,165.72,90.62Z" transform="translate(-80.54 -43.33)"/></g><g id="white_on_hat" data-name="white on hat"><path class="cls-21" d="M253.11,82.13c-2.66,11.4-20.86,16.75-34.1,13.61-11.82-2.8-24.49-13.52-23-23.74,1.12-7.73,9.9-12.37,13-14a30.59,30.59,0,0,1,20-3C242.15,57.77,255.75,70.83,253.11,82.13Z" transform="translate(-80.54 -43.33)"/></g><g id="m"><path class="cls-22" d="M200,78l4,2a38,38,0,0,1,7-10,37.42,37.42,0,0,1,6-5,49,49,0,0,0,0,5,52,52,0,0,0,2,12,63.57,63.57,0,0,0,10-7,64,64,0,0,0,7-7c-.09,3.18-.1,6.51,0,10,.15,5,.51,9.66,1,14l4-1a51.48,51.48,0,0,0-4-28,49,49,0,0,0-15,12,36.23,36.23,0,0,0-1-7,35.77,35.77,0,0,0-3-8,38.15,38.15,0,0,0-9,6A38.63,38.63,0,0,0,200,78Z" transform="translate(-80.54 -43.33)"/></g></svg>