<svg xmlns="http://www.w3.org/2000/svg" viewBox="0 0 230.87 261.32"><defs><style>.cls-1{fill:#f8ac00;}.cls-2{fill:#fff;}.cls-3{fill:#1d0fff;}</style></defs><g id="Layer_1" data-name="Layer 1"><path class="cls-1" d="M91,299.5c-10.25-74.74,5.32-126.68,15.5-152.5,10.27-26,20.49-39.29,32-49,2.29-1.93,40.17-32.86,88-22,30.69,7,49,27.39,59.5,39.5,30,34.51,30.86,85.84,32.5,188.5.08,4.43.1,13.74-6,21-8.58,10.23-24,10.06-30,10-18.24-.2-31.5-9.56-37-14a72.43,72.43,0,0,1-36,13,54.07,54.07,0,0,1-46-18,61.1,61.1,0,0,1-29,10,45.27,45.27,0,0,1-15-1C102.24,320.52,93.35,304.24,91,299.5Z" transform="translate(-87.61 -73.69)"/><path class="cls-2" d="M188.36,178.48c-2.62,15.4-17.68,31.46-34.81,28.7C136.19,204.37,127.77,184,129.48,169c1.13-9.91,6.61-16.85,9.52-20a167.15,167.15,0,0,0,22,5,167.92,167.92,0,0,0,23,2C186,159.56,190.12,168.12,188.36,178.48Z" transform="translate(-87.61 -73.69)"/><path class="cls-2" d="M278.45,179.69c-1.2,15.57-14.59,32.37-31.26,31.32-17.08-1.09-27-20.29-27.12-35A36.83,36.83,0,0,1,227,155a116.5,116.5,0,0,0,43,0C272.25,157.72,279.42,167.11,278.45,179.69Z" transform="translate(-87.61 -73.69)"/><circle class="cls-3" cx="56.36" cy="102.81" r="16"/><circle class="cls-3" cx="148.36" cy="105.81" r="16"/></g></svg>