<svg xmlns="http://www.w3.org/2000/svg" viewBox="0 0 230.87 261.32"><defs><style>.cls-1{fill:#f40000;}.cls-2{fill:#fff;}.cls-3{fill:#1d0fff;}</style></defs><g id="gost"><path class="cls-1" d="M102,307c-10.26-74.74,5.31-126.68,15.5-152.5,10.27-26,20.48-39.29,32-49,2.29-1.93,40.17-32.86,88-22,30.69,7,49,27.39,59.5,39.5,30,34.52,30.86,85.84,32.5,188.5.07,4.43.09,13.74-6,21-8.59,10.24-24,10.07-30,10-18.25-.2-31.5-9.55-37-14a72.41,72.41,0,0,1-36,13,56.12,56.12,0,0,1-21-2,55.47,55.47,0,0,1-25-16,61.14,61.14,0,0,1-29,10,45,45,0,0,1-15-1C113.28,328,104.38,311.75,102,307Z" transform="translate(-98.64 -81.19)"/></g><g id="eyes_white" data-name="eyes white"><ellipse class="cls-2" cx="169.95" cy="181.26" rx="33.85" ry="29.81" transform="translate(-134.6 239.12) rotate(-80.87)"/><ellipse class="cls-2" cx="260.29" cy="185.37" rx="33.2" ry="29.24" transform="translate(-39.55 352.44) rotate(-86.43)"/></g><g id="eyes_blue" data-name="eyes blue"><circle class="cls-3" cx="56.36" cy="102.81" r="16"/><circle class="cls-3" cx="148.36" cy="105.81" r="16"/></g></svg>