<svg xmlns="http://www.w3.org/2000/svg" xmlns:xlink="http://www.w3.org/1999/xlink" viewBox="0 0 333.77 305.47"><defs><style>.cls-1{fill:#fff;}.cls-2{fill:url(#linear-gradient);}.cls-3{fill:url(#linear-gradient-2);}.cls-4{fill:url(#linear-gradient-3);}.cls-5{fill:url(#linear-gradient-4);}.cls-6{fill:url(#radial-gradient);}.cls-7{fill:url(#radial-gradient-2);}.cls-8{fill:url(#radial-gradient-3);}.cls-9{fill:#4b44bb;}.cls-10{fill:url(#linear-gradient-5);}.cls-11{fill:#8f8bb2;}.cls-12{fill:url(#linear-gradient-6);}.cls-13{fill:url(#linear-gradient-7);}.cls-14{fill:url(#linear-gradient-8);}.cls-15{fill:url(#linear-gradient-9);}.cls-16{fill:#ff8388;}.cls-17{fill:url(#radial-gradient-4);}.cls-18{fill:url(#radial-gradient-5);}.cls-19{fill:url(#radial-gradient-6);}.cls-20{fill:#e1e1f6;}.cls-21{fill:#4545a9;}.cls-22{fill:#eb8d26;}</style><linearGradient id="linear-gradient" x1="140.58" y1="299.18" x2="18.29" y2="372.5" gradientUnits="userSpaceOnUse"><stop offset="0" stop-color="#eb8d26"/><stop offset="0.01" stop-color="#e98c26"/><stop offset="0.37" stop-color="#8e4713"/><stop offset="0.62" stop-color="#541c07"/><stop offset="0.74" stop-color="#3e0b02"/></linearGradient><linearGradient id="linear-gradient-2" x1="165.38" y1="330.95" x2="165.38" y2="389.55" gradientUnits="userSpaceOnUse"><stop offset="0" stop-color="#eb8d26"/><stop offset="0.07" stop-color="#de8323"/><stop offset="0.2" stop-color="#bc6a1c"/><stop offset="0.37" stop-color="#854011"/><stop offset="0.57" stop-color="#3e0b02"/></linearGradient><linearGradient id="linear-gradient-3" x1="235.74" y1="349" x2="235.74" y2="389.56" gradientUnits="userSpaceOnUse"><stop offset="0" stop-color="#eb8d26"/><stop offset="0.04" stop-color="#de8323"/><stop offset="0.12" stop-color="#bc6a1c"/><stop offset="0.23" stop-color="#854011"/><stop offset="0.35" stop-color="#3e0b02"/></linearGradient><linearGradient id="linear-gradient-4" x1="225.53" y1="235.74" x2="327.91" y2="235.74" gradientUnits="userSpaceOnUse"><stop offset="0" stop-color="#eb8d26"/><stop offset="0.09" stop-color="#de8323"/><stop offset="0.26" stop-color="#bc6a1c"/><stop offset="0.49" stop-color="#854011"/><stop offset="0.75" stop-color="#3e0b02"/></linearGradient><radialGradient id="radial-gradient" cx="188.86" cy="284.51" r="65.55" gradientUnits="userSpaceOnUse"><stop offset="0" stop-color="#eb8d26"/><stop offset="0.22" stop-color="#de8423"/><stop offset="0.63" stop-color="#bc6d1a"/><stop offset="0.81" stop-color="#ac6216"/></radialGradient><radialGradient id="radial-gradient-2" cx="207.5" cy="276.42" r="48.24" gradientUnits="userSpaceOnUse"><stop offset="0" stop-color="#e9d281"/><stop offset="0.17" stop-color="#e5c674"/><stop offset="0.48" stop-color="#dba652"/><stop offset="0.81" stop-color="#cf7e28"/></radialGradient><radialGradient id="radial-gradient-3" cx="212.66" cy="317.83" r="63.71" gradientUnits="userSpaceOnUse"><stop offset="0" stop-color="#4b44bb"/><stop offset="0.29" stop-color="#3e3ab1"/><stop offset="0.78" stop-color="#202198"/></radialGradient><linearGradient id="linear-gradient-5" x1="214.86" y1="318.29" x2="214.86" y2="368.33" gradientUnits="userSpaceOnUse"><stop offset="0" stop-color="#8f8bb2"/><stop offset="0.17" stop-color="#837eb4"/><stop offset="0.48" stop-color="#625cb8"/><stop offset="0.67" stop-color="#4b44bb"/></linearGradient><linearGradient id="linear-gradient-6" x1="258" y1="292.62" x2="82.3" y2="292.62" gradientUnits="userSpaceOnUse"><stop offset="0.27" stop-color="#4b44bb"/><stop offset="0.51" stop-color="#3e3ab1"/><stop offset="0.9" stop-color="#202198"/></linearGradient><linearGradient id="linear-gradient-7" x1="133.32" y1="227.4" x2="133.32" y2="343.57" gradientUnits="userSpaceOnUse"><stop offset="0" stop-color="#eb8d26"/><stop offset="0.08" stop-color="#de8323"/><stop offset="0.22" stop-color="#bc6a1c"/><stop offset="0.4" stop-color="#854011"/><stop offset="0.62" stop-color="#3e0b02"/></linearGradient><linearGradient id="linear-gradient-8" x1="126.82" y1="131.1" x2="98.29" y2="81.68" gradientUnits="userSpaceOnUse"><stop offset="0" stop-color="#eb8d26"/><stop offset="0.14" stop-color="#de8524"/><stop offset="0.41" stop-color="#bc6e20"/><stop offset="0.77" stop-color="#854a18"/><stop offset="1" stop-color="#5e3013"/></linearGradient><linearGradient id="linear-gradient-9" x1="241.24" y1="111.54" x2="275.89" y2="76.89" xlink:href="#linear-gradient-8"/><radialGradient id="radial-gradient-4" cx="189.78" cy="161.98" r="119.97" xlink:href="#radial-gradient"/><radialGradient id="radial-gradient-5" cx="201.49" cy="196.27" r="16.32" gradientUnits="userSpaceOnUse"><stop offset="0.27" stop-color="#492014"/><stop offset="0.69" stop-color="#421309"/><stop offset="0.9" stop-color="#3e0b02"/></radialGradient><radialGradient id="radial-gradient-6" cx="190.68" cy="153.04" r="57.37" xlink:href="#radial-gradient-5"/></defs><g id="pay_up" data-name="pay up"><path class="cls-1" d="M302.68,98.8a118.23,118.23,0,0,0-9.13,29.62c-.31,1.89,2.58,2.7,2.9.8a115.65,115.65,0,0,1,8.82-28.91c.79-1.74-1.79-3.27-2.59-1.51Z" transform="translate(-23.84 -68.51)"/><path class="cls-1" d="M303.59,98.05c3.48-1.31,8.62-2.45,11.07,1.28a3.71,3.71,0,0,1-.09,4.53,13.14,13.14,0,0,1-4.78,3.52,16.63,16.63,0,0,1-6.9,1.59c-1.92,0-1.93,3,0,3a20.39,20.39,0,0,0,7.85-1.74,15.81,15.81,0,0,0,6.28-4.67,6.57,6.57,0,0,0,.69-6.93,8.63,8.63,0,0,0-5.46-4.47c-3.15-.86-6.48-.13-9.46,1A1.54,1.54,0,0,0,301.74,97a1.51,1.51,0,0,0,1.85,1Z" transform="translate(-23.84 -68.51)"/><path class="cls-1" d="M332.31,98.7a9.43,9.43,0,0,0-12,9.15c0,2.94,1.81,5.77,5,5.88,2.9.1,5.56-2,7.25-4.18a14.14,14.14,0,0,0,3-8.94,1.5,1.5,0,0,0-3,0,104,104,0,0,0,.33,14.34,1.54,1.54,0,0,0,1.5,1.5,1.52,1.52,0,0,0,1.5-1.5,104,104,0,0,1-.33-14.34h-3A11.1,11.1,0,0,1,331,106.4a9.27,9.27,0,0,1-4.29,4,2.58,2.58,0,0,1-2.51-.07,3,3,0,0,1-.93-1.89,6.39,6.39,0,0,1,1.95-5.37,6.53,6.53,0,0,1,6.26-1.52,1.5,1.5,0,0,0,.79-2.89Z" transform="translate(-23.84 -68.51)"/><path class="cls-1" d="M342.36,104.73q2.82,7.36,6.29,14.47a1.51,1.51,0,0,0,2.05.54,1.53,1.53,0,0,0,.54-2q-3.3-6.75-6-13.76a1.54,1.54,0,0,0-1.84-1,1.5,1.5,0,0,0-1.05,1.84Z" transform="translate(-23.84 -68.51)"/><path class="cls-1" d="M354.87,105.32q-6.47,14-13.82,27.57c-.92,1.7,1.66,3.22,2.59,1.52q7.35-13.56,13.82-27.58c.8-1.74-1.79-3.26-2.59-1.51Z" transform="translate(-23.84 -68.51)"/><path class="cls-1" d="M309.47,143.79a18,18,0,0,0-2.57,7.28,7.17,7.17,0,0,0,2.77,6.36c4.36,3.17,9-1.48,11.44-4.92a18.89,18.89,0,0,0,3-7.15c.37-1.88-2.44-2.7-2.89-.8a126.88,126.88,0,0,0-2.86,17.12,1.51,1.51,0,0,0,1.5,1.5,1.53,1.53,0,0,0,1.5-1.5,121.66,121.66,0,0,1,2.75-16.32l-2.89-.8a16.73,16.73,0,0,1-2.58,6.21,15.8,15.8,0,0,1-2.15,2.54,9.67,9.67,0,0,1-2.73,2c-2,.83-3.62-1.2-3.87-3-.35-2.52,1-4.92,2.14-7.06.92-1.7-1.67-3.22-2.59-1.51Z" transform="translate(-23.84 -68.51)"/><path class="cls-1" d="M329.44,150.15l-7.36,31.32c-.44,1.87,2.45,2.68,2.9.79l7.35-31.32c.44-1.87-2.45-2.68-2.89-.79Z" transform="translate(-23.84 -68.51)"/><path class="cls-1" d="M336,149.4c1.34-.66,3-1.48,4.51-1.3a2.47,2.47,0,0,1,1.63.85,3.64,3.64,0,0,1,.41.69c.08.15,0,0,0,0s.05.15.08.22.1.37.14.55a3.54,3.54,0,0,1,.06.83c0,.09,0,.4,0,.37s-.06.32-.09.44a4.92,4.92,0,0,1-.89,1.75,9.38,9.38,0,0,1-3.9,2.73,9.94,9.94,0,0,1-5.87.64,1.55,1.55,0,0,0-1.85,1,1.52,1.52,0,0,0,1.05,1.84A13.74,13.74,0,0,0,344,155.93a7.39,7.39,0,0,0,1.77-6,5.68,5.68,0,0,0-3.67-4.55c-2.55-.91-5.3.29-7.58,1.41A1.5,1.5,0,0,0,336,149.4Z" transform="translate(-23.84 -68.51)"/></g><g id="tail"><path class="cls-2" d="M129,300a111,111,0,0,1-28,8c-18.47,2.7-25.54-1.16-46,3-14.86,3-21,7.07-25,12a27.4,27.4,0,0,0-6,14c-1.63,14.22,9.36,24.51,11,26,9.46,8.58,21.24,8.88,32,9,27.43.3,47.31-12.37,62-22,15-9.81,23.95-15.73,24-25C153.05,315.27,143.22,305.68,129,300Z" transform="translate(-23.84 -68.51)"/></g><g id="legs"><path class="cls-3" d="M149.26,337a156.69,156.69,0,0,0,3,20c1.17,5.45,2.54,10.46,4,15a40,40,0,0,0,25,0,185.59,185.59,0,0,0,0-19c-.22-4.09-.28-2.4-1-12-.5-6.53-.46-7.2-1-8C178.11,331.3,173.59,327.93,149.26,337Z" transform="translate(-23.84 -68.51)"/><path class="cls-4" d="M224,358l3,11a27.87,27.87,0,0,0,18,1,44.17,44.17,0,0,0,2-8,43.72,43.72,0,0,0,0-13Z" transform="translate(-23.84 -68.51)"/></g><g id="arm_out" data-name="arm out"><path class="cls-5" d="M245,226c13-2.24,19.47-3.36,22-4,14.16-3.57,17.68-7.24,24-5,3.73,1.32,8,4.55,9,9,1.74,7.83-7.65,15.32-11,18-8.7,6.95-18.29,8.6-27,10a91.2,91.2,0,0,1-20,1c-6.39-5.74-19.05-18-16-24C227.12,228.81,229.74,228.64,245,226Z" transform="translate(-23.84 -68.51)"/></g><g id="torso"><path class="cls-6" d="M152,233a68.81,68.81,0,0,0-23,26c-1.86,3.7-15.86,32.75-1,58,8.61,14.63,22.46,20.42,31,24,25.58,10.7,60,9.87,81-9a50.65,50.65,0,0,0,14-20c1.06-2.87,4.56-13.12,1-32-4.39-23.22-16-40.92-25-52C224.87,226,184.62,211,152,233Z" transform="translate(-23.84 -68.51)"/></g><g id="belly"><path class="cls-7" d="M173,284.75c.12-4,.94-15.77,9-26.42,2.47-3.28,9.74-12.91,22-14.31,14.35-1.65,24.42,9.36,26.93,12.11,2.92,3.19,12.51,13.67,11,26.42-1.92,15.9-20.13,27.11-35.92,26.42C184.82,308.05,173.66,286.1,173,284.75Z" transform="translate(-23.84 -68.51)"/></g><g id="apron"><path class="cls-8" d="M165,284a205.23,205.23,0,0,1,2,35,206.45,206.45,0,0,1-4,35,117.55,117.55,0,0,0,34,9c18.09,1.94,32.49-.87,43-3a172.48,172.48,0,0,0,22-6,261.19,261.19,0,0,0-1-39,262.2,262.2,0,0,0-8-43,141.64,141.64,0,0,1-22,7c-10.95,2.53-19.29,3.09-34,4C188.8,283.51,177.92,284,165,284Z" transform="translate(-23.84 -68.51)"/><path class="cls-9" d="M234,314" transform="translate(-23.84 -68.51)"/></g><g id="apron_leaf" data-name="apron leaf"><path class="cls-10" d="M187.79,343.19a81.91,81.91,0,0,0,11-10c7.12-7.77,8.28-12.07,14-14,4.27-1.44,10.6-1.41,13,2a5.89,5.89,0,0,1,1,3,29.18,29.18,0,0,1,4,0c4.3.28,8.12.54,10,3,2.33,3,.45,7.84,0,9a15.1,15.1,0,0,1-8,8,6.73,6.73,0,0,0-5-6c-3.17-.7-5.6,1.61-6,2s-3,3-2,6a5.44,5.44,0,0,0,3,3,56,56,0,0,1-10,1,43.85,43.85,0,0,1-15-2A40.05,40.05,0,0,1,187.79,343.19Z" transform="translate(-23.84 -68.51)"/><path class="cls-11" d="M229.57,319.29c-1.07,1.49-2.59,3.46-4.57,5.71a29.35,29.35,0,0,0,16-9.14,20.14,20.14,0,0,1-2.29-1.15,29.22,29.22,0,0,1-4.57-3.42h0s-1.1,2.5-2.28,4.57A36.49,36.49,0,0,1,229.57,319.29Z" transform="translate(-23.84 -68.51)"/></g><g id="apron_string" data-name="apron string"><path class="cls-12" d="M124,293a195,195,0,0,0,25,7,200.77,200.77,0,0,0,63,3c11.9-1.38,24.44-4,29-5,7-1.49,12.86-2.93,17-4-.33-2-.67-4-1-6s-.67-4-1-6a98.82,98.82,0,0,1-16,7c-9.58,3.21-17.21,4.12-25,5a190.82,190.82,0,0,1-27,1c-9.31-.29-20.25-.69-34-4a140.22,140.22,0,0,1-28-10Q125,287,124,293Z" transform="translate(-23.84 -68.51)"/></g><g id="folded_arm" data-name="folded arm"><path class="cls-13" d="M131,229c-2.09.93-4.73,3-10,7-8.35,6.41-12.53,9.61-15,14-4.31,7.64-3.39,15.59-3,19,.33,2.9,1.79,14.09,11,22,3.39,2.91,8.83,7.58,15,6,5.93-1.51,10.53-8.26,10-14-.73-8-11-10.54-10-16,.4-2.14,2.12-2.54,10-8,0,0,6.26-4.34,12-9a90.82,90.82,0,0,0,13-13C158,232.89,142.85,223.71,131,229Z" transform="translate(-23.84 -68.51)"/></g><g id="ear_base" data-name="ear base"><path class="cls-14" d="M104,135c-5.09-2.09-16-6.57-20-18-5.07-14.64,5.84-27.66,7-29,.94-1.09,12.87-14.42,29-11,12.72,2.7,18.82,13.85,20,16,1.68,3.07,3,5.55,3,9-.07,6.68-5.24,8.58-14,20-7.3,9.52-7.81,13.55-13,15C111.77,138.18,108,136.65,104,135Z" transform="translate(-23.84 -68.51)"/><path class="cls-15" d="M272,119c4-4.46,7.15-7.88,9-13,2.71-7.49,3.52-20.8-6-30-9-8.68-22.35-9-30-5-5,2.66-10,8.47-11.77,11.29-.37.58-.69,1.16-.69,1.16-1.65,2.86-3,5.17-2.95,8.39.06,6.23,5.16,8,13.78,18.66,4.79,5.92,5.26,9.79,10.42,13,1.79,1.12,4.65,2.85,8.21,2.49C263.28,125.87,266.28,125.31,272,119Z" transform="translate(-23.84 -68.51)"/></g><g id="ear_pink" data-name="ear pink"><path class="cls-16" d="M109.29,126.38c-3.17-1.3-10-4.09-12.46-11.22-3.15-9.11,3.64-17.23,4.36-18.06.59-.68,8-9,18.07-6.85,7.92,1.68,11.72,8.63,12.46,10,1,1.92,1.89,3.46,1.86,5.61,0,4.16-3.26,5.35-8.72,12.46-4.55,5.93-4.86,8.44-8.09,9.34C114.13,128.36,111.81,127.41,109.29,126.38Z" transform="translate(-23.84 -68.51)"/><path class="cls-16" d="M264.16,115c2.69-3,4.75-5.23,6-8.63,1.8-5,2.34-13.81-4-19.92-6-5.76-14.83-6-19.91-3.32a25.1,25.1,0,0,0-7.82,7.49c-.24.39-.46.78-.46.78-1.1,1.9-2,3.43-2,5.57,0,4.14,3.43,5.32,9.15,12.39,3.18,3.93,3.5,6.5,6.92,8.63a8.55,8.55,0,0,0,5.45,1.66C258.37,119.52,260.36,119.15,264.16,115Z" transform="translate(-23.84 -68.51)"/></g><g id="head"><path class="cls-17" d="M105.52,206.88c-10.87-20.21-6.79-40.21-5-49,5.67-27.8,23.61-44.21,29-49a97.48,97.48,0,0,1,51-23c9.86-1.31,33.43-4.08,57,10a81.68,81.68,0,0,1,29,30c5.36,9.58,7.34,17.88,10,29,4,16.65,6,25,4,34-4.27,19.6-23.39,30.51-33,36-17.59,10-33,11.16-58,13-28.16,2.06-44.36,3-61-7A63.62,63.62,0,0,1,105.52,206.88Z" transform="translate(-23.84 -68.51)"/></g><g id="nose"><path class="cls-18" d="M185,189c1.95-3.52,5.56-4.63,10-6a24.21,24.21,0,0,1,13-1,15.38,15.38,0,0,1,8,4,10.27,10.27,0,0,1,3,5,11.17,11.17,0,0,1-1,7,19.9,19.9,0,0,1-5,7c-3.48,3.41-5.73,5.63-9,6s-6.61-2.07-13-7c-5.83-4.49-6.67-6.57-7-8A10.38,10.38,0,0,1,185,189Z" transform="translate(-23.84 -68.51)"/></g><g id="eye_patch" data-name="eye patch"><path class="cls-19" d="M128,141c-4.15,5.37-12.63,16.34-9,29,3,10.39,12.85,17.47,22,19s16.77-2.56,27-8c9.51-5.05,8.73-6.91,16-10,3-1.26,15.23-6.28,29-3,9.34,2.22,9.05,5.8,23,10,11.71,3.52,15.8,2.17,18,1,5.31-2.82,7.21-8.6,8-11,3.6-10.94-1.57-21.17-3-24-7.46-14.78-22.3-20.44-29-23-12.43-4.75-22.7-4.45-38-4-11.4.33-21.48.63-34,5C149.08,125.11,137,129.33,128,141Z" transform="translate(-23.84 -68.51)"/></g><g id="eyes_white" data-name="eyes white"><ellipse class="cls-20" cx="154.05" cy="154.78" rx="19.92" ry="15.11" transform="translate(-39.58 223.59) rotate(-84.1)"/><ellipse class="cls-20" cx="234.48" cy="150.58" rx="13.6" ry="18.59" transform="translate(-45.22 -28.32) rotate(-9.37)"/></g><g id="pupil"><ellipse class="cls-21" cx="154.06" cy="154.31" rx="13.58" ry="10.3" transform="matrix(0.1, -0.99, 0.99, 0.1, -39.11, 223.18)"/><ellipse class="cls-21" cx="234.55" cy="150.23" rx="9.36" ry="13.72" transform="translate(-45.17 -28.31) rotate(-9.37)"/></g><g id="eyelids"><path class="cls-22" d="M139,155c1.16-.12,2.9-.32,5-.66,5.54-.89,8.82-2.08,13-3,2.85-.65,6.95-1.51,12-2.3a19.13,19.13,0,0,0-4-9c-1.33-1.63-3.41-4.18-7-5a12.46,12.46,0,0,0-5.05.09,14.94,14.94,0,0,0-3,.91,17.53,17.53,0,0,0-1.95,1,19.83,19.83,0,0,0-6.05,6A20.6,20.6,0,0,0,139,155Z" transform="translate(-23.84 -68.51)"/><path class="cls-22" d="M221,144c3.44,1.06,7.11,2.08,11,3,5.67,1.34,11,2.31,16,3a21.22,21.22,0,0,0-2-9c-1.07-2.26-2.83-6-7-8a12,12,0,0,0-8-1,12.54,12.54,0,0,0-7,5A15.5,15.5,0,0,0,221,144Z" transform="translate(-23.84 -68.51)"/></g></svg>